<mxfile host="app.diagrams.net" agent="Mozilla/5.0 (Windows NT 10.0; Win64; x64) AppleWebKit/537.36 (KHTML, like Gecko) Chrome/134.0.0.0 Safari/537.36 Edg/134.0.0.0" version="26.1.1">
  <diagram name="第 1 页" id="I9ARxR-hZCbka2RVn-H5">
    <mxGraphModel dx="1783" dy="986" grid="1" gridSize="10" guides="1" tooltips="1" connect="1" arrows="1" fold="1" page="1" pageScale="1" pageWidth="1600" pageHeight="900" math="0" shadow="0">
      <root>
        <mxCell id="0" />
        <mxCell id="1" parent="0" />
        <mxCell id="JMByZSc3zzV_YOSufc9P-22" style="edgeStyle=orthogonalEdgeStyle;rounded=0;orthogonalLoop=1;jettySize=auto;html=1;exitX=1;exitY=0.5;exitDx=0;exitDy=0;entryX=0;entryY=0.5;entryDx=0;entryDy=0;" edge="1" parent="1" source="JMByZSc3zzV_YOSufc9P-2" target="JMByZSc3zzV_YOSufc9P-21">
          <mxGeometry relative="1" as="geometry" />
        </mxCell>
        <mxCell id="JMByZSc3zzV_YOSufc9P-2" value="环视多相机输入" style="rounded=1;whiteSpace=wrap;html=1;fillColor=#dae8fc;strokeColor=#6c8ebf;fontFamily=Times New Roman;fontSize=20;" vertex="1" parent="1">
          <mxGeometry x="190" y="190" width="150" height="80" as="geometry" />
        </mxCell>
        <mxCell id="JMByZSc3zzV_YOSufc9P-8" style="edgeStyle=orthogonalEdgeStyle;rounded=0;orthogonalLoop=1;jettySize=auto;html=1;entryX=0;entryY=0.5;entryDx=0;entryDy=0;" edge="1" parent="1" source="JMByZSc3zzV_YOSufc9P-5" target="JMByZSc3zzV_YOSufc9P-11">
          <mxGeometry relative="1" as="geometry">
            <mxPoint x="800" y="150" as="targetPoint" />
          </mxGeometry>
        </mxCell>
        <mxCell id="JMByZSc3zzV_YOSufc9P-10" style="edgeStyle=orthogonalEdgeStyle;rounded=0;orthogonalLoop=1;jettySize=auto;html=1;exitX=1;exitY=0.5;exitDx=0;exitDy=0;entryX=0;entryY=0.5;entryDx=0;entryDy=0;" edge="1" parent="1" source="JMByZSc3zzV_YOSufc9P-27" target="JMByZSc3zzV_YOSufc9P-9">
          <mxGeometry relative="1" as="geometry" />
        </mxCell>
        <mxCell id="JMByZSc3zzV_YOSufc9P-28" style="edgeStyle=orthogonalEdgeStyle;rounded=0;orthogonalLoop=1;jettySize=auto;html=1;exitX=1;exitY=0.5;exitDx=0;exitDy=0;entryX=0;entryY=0.5;entryDx=0;entryDy=0;" edge="1" parent="1" source="JMByZSc3zzV_YOSufc9P-5" target="JMByZSc3zzV_YOSufc9P-27">
          <mxGeometry relative="1" as="geometry">
            <Array as="points">
              <mxPoint x="730" y="230" />
              <mxPoint x="730" y="390" />
            </Array>
          </mxGeometry>
        </mxCell>
        <mxCell id="JMByZSc3zzV_YOSufc9P-5" value="全景深度估计" style="rounded=1;whiteSpace=wrap;html=1;fillColor=#dae8fc;strokeColor=#6c8ebf;fontFamily=Times New Roman;fontSize=20;" vertex="1" parent="1">
          <mxGeometry x="560" y="190" width="150" height="80" as="geometry" />
        </mxCell>
        <mxCell id="JMByZSc3zzV_YOSufc9P-14" style="edgeStyle=orthogonalEdgeStyle;rounded=0;orthogonalLoop=1;jettySize=auto;html=1;exitX=0.5;exitY=0;exitDx=0;exitDy=0;entryX=0.5;entryY=1;entryDx=0;entryDy=0;" edge="1" parent="1" source="JMByZSc3zzV_YOSufc9P-9" target="JMByZSc3zzV_YOSufc9P-12">
          <mxGeometry relative="1" as="geometry" />
        </mxCell>
        <mxCell id="JMByZSc3zzV_YOSufc9P-9" value="指导特征" style="rounded=0;whiteSpace=wrap;html=1;fontSize=20;fontFamily=Times New Roman;fillColor=#fff2cc;strokeColor=#d6b656;" vertex="1" parent="1">
          <mxGeometry x="995" y="350" width="160" height="80" as="geometry" />
        </mxCell>
        <mxCell id="JMByZSc3zzV_YOSufc9P-13" style="edgeStyle=orthogonalEdgeStyle;rounded=0;orthogonalLoop=1;jettySize=auto;html=1;exitX=1;exitY=0.5;exitDx=0;exitDy=0;entryX=0;entryY=0.5;entryDx=0;entryDy=0;" edge="1" parent="1" source="JMByZSc3zzV_YOSufc9P-11" target="JMByZSc3zzV_YOSufc9P-12">
          <mxGeometry relative="1" as="geometry" />
        </mxCell>
        <mxCell id="JMByZSc3zzV_YOSufc9P-11" value="粗粒度深度" style="rounded=0;whiteSpace=wrap;html=1;fontSize=20;fontFamily=Times New Roman;fillColor=#d5e8d4;strokeColor=#82b366;" vertex="1" parent="1">
          <mxGeometry x="780" y="190" width="160" height="80" as="geometry" />
        </mxCell>
        <mxCell id="JMByZSc3zzV_YOSufc9P-17" style="edgeStyle=orthogonalEdgeStyle;rounded=0;orthogonalLoop=1;jettySize=auto;html=1;entryX=0;entryY=0.5;entryDx=0;entryDy=0;" edge="1" parent="1" source="JMByZSc3zzV_YOSufc9P-12" target="JMByZSc3zzV_YOSufc9P-15">
          <mxGeometry relative="1" as="geometry" />
        </mxCell>
        <mxCell id="JMByZSc3zzV_YOSufc9P-12" value="" style="rounded=1;whiteSpace=wrap;html=1;fontFamily=Times New Roman;fontSize=20;opacity=60;fillColor=#f5f5f5;fontColor=#333333;strokeColor=#666666;" vertex="1" parent="1">
          <mxGeometry x="985" y="135" width="170" height="190" as="geometry" />
        </mxCell>
        <mxCell id="JMByZSc3zzV_YOSufc9P-15" value="细粒度深度" style="rounded=0;whiteSpace=wrap;html=1;fontSize=20;fontFamily=Times New Roman;fillColor=#d5e8d4;strokeColor=#82b366;" vertex="1" parent="1">
          <mxGeometry x="1190" y="190" width="160" height="80" as="geometry" />
        </mxCell>
        <mxCell id="JMByZSc3zzV_YOSufc9P-20" style="edgeStyle=orthogonalEdgeStyle;rounded=0;orthogonalLoop=1;jettySize=auto;html=1;exitX=1;exitY=0.5;exitDx=0;exitDy=0;entryX=0.5;entryY=0;entryDx=0;entryDy=0;" edge="1" parent="1" source="JMByZSc3zzV_YOSufc9P-18" target="JMByZSc3zzV_YOSufc9P-12">
          <mxGeometry relative="1" as="geometry" />
        </mxCell>
        <mxCell id="JMByZSc3zzV_YOSufc9P-18" value="共视区域掩码" style="rounded=0;whiteSpace=wrap;html=1;fontSize=20;fontFamily=Times New Roman;fillColor=#f5f5f5;strokeColor=#666666;fontColor=#333333;" vertex="1" parent="1">
          <mxGeometry x="710" y="70" width="160" height="80" as="geometry" />
        </mxCell>
        <mxCell id="JMByZSc3zzV_YOSufc9P-23" style="edgeStyle=orthogonalEdgeStyle;rounded=0;orthogonalLoop=1;jettySize=auto;html=1;entryX=0;entryY=0.5;entryDx=0;entryDy=0;" edge="1" parent="1" source="JMByZSc3zzV_YOSufc9P-21" target="JMByZSc3zzV_YOSufc9P-5">
          <mxGeometry relative="1" as="geometry" />
        </mxCell>
        <mxCell id="JMByZSc3zzV_YOSufc9P-24" style="edgeStyle=orthogonalEdgeStyle;rounded=0;orthogonalLoop=1;jettySize=auto;html=1;entryX=0;entryY=0.5;entryDx=0;entryDy=0;exitX=0.5;exitY=0;exitDx=0;exitDy=0;" edge="1" parent="1" source="JMByZSc3zzV_YOSufc9P-21" target="JMByZSc3zzV_YOSufc9P-18">
          <mxGeometry relative="1" as="geometry">
            <Array as="points">
              <mxPoint x="465" y="110" />
            </Array>
          </mxGeometry>
        </mxCell>
        <mxCell id="JMByZSc3zzV_YOSufc9P-21" value="球面扫描" style="rounded=1;whiteSpace=wrap;html=1;fillColor=#dae8fc;strokeColor=#6c8ebf;fontFamily=Times New Roman;fontSize=20;" vertex="1" parent="1">
          <mxGeometry x="390" y="190" width="150" height="80" as="geometry" />
        </mxCell>
        <mxCell id="JMByZSc3zzV_YOSufc9P-27" value="指导特征网络" style="rounded=1;whiteSpace=wrap;html=1;fillColor=#dae8fc;strokeColor=#6c8ebf;fontFamily=Times New Roman;fontSize=20;" vertex="1" parent="1">
          <mxGeometry x="780" y="350" width="150" height="80" as="geometry" />
        </mxCell>
        <mxCell id="JMByZSc3zzV_YOSufc9P-29" value="" style="shape=image;verticalLabelPosition=bottom;labelBackgroundColor=default;verticalAlign=top;aspect=fixed;imageAspect=0;image=data:image/png,iVBORw0KGgoAAAANSUhEUgAAAGQAAADmCAYAAAAjmiCHAAAAAXNSR0IArs4c6QAAIABJREFUeF7sfQWcFFf27lftMj3SPe4GM7hrAiEKIRCIbdjILnHfAHGF6GbjJCHu7k6QJDCEkBCC6wwyPtPj0u71/udWVXd1T08Ckf3ve2/7twJNd3XV/e7x75zL4b+v37wCfNuezB5r5eUunXY+OK5AoVCA53koODWUCuW6YAhQgENIowRCPBQaFULgoKBf5DiA57cHleoeXoGeEK+qyE0ftZ37zXfz//kXeeu+ws6WHRXuzJwClcEE8CFaZQA8A4X+X/g7/S/9mcAKguOU9AlwBAh9ig8i5A8i3VAMtTbls/8C8hs2FoHR1rK9IpiWU8CZEoFgIAyGBIKABJMCCae+v0T/7PPCrC2A1pCGVsdeEcLfcFP/v37Fbd1X6LHuqPBk5hTAkACESDIkPCJSIZcQ4QPyfxPA4r1OJOuKoDOmobVnD6rrq/8LyJFsLJKMjuZtFZ6s3AIVA4MWOc5ixwWA6SeAUzD1FvJ5kKTJhTEhE+1tu7GnqQqDywb9F5DDBYSv2VbY21FZ4c7OLYDBIOIg7voo1RTnPWmZRfXFe91IUmZCb8pCY8cW1DbWY8DAcqjVmv8CcjiAMANe92OFO7ewQGVMFnZ61It2PhkE2ZuCfY+oM9Hgh3wuJHIZMOjS0OOswd76SpQMGAgFpwB5af816r+CCIFhP/BjRU9hXoE6OV004KL6kS+fHICwTZEAEZfZ44JBkYwEXTp6XU1wq9xQqnSCZwZA+f8yIGvXrp2/9ttvp61Yvbpw+7ZtN/v9/o2HIw3yzxAYvYc2VNjyCwo0SRngg76INyWXCPm2DkuF6GHRBRUc4HZBBwMStTlweRrRq/JAqdZFSZFSofx/R0LWr18/bcWqVdM2bvhu2p69e0e2tnYkiYu7DsC03wJGV82GCk9WXoHCnAkE/f2rpTAgMhCk9zgFQs5eGHkDTPo8OHxW2BRucAo1lCqVTP3x7O//16qstWvXTtu4cdO09esrpn237ruRDqdTAiBq7d/96KNJ884444ikgyTDdqCiwpNTWBBMywIXCEbj2e+qiXqL2XUx8HPZoVPokKTJgd3dCpvKCU6pg1qlFEwR+xzP/vN/DSA1NTWFnZ2dI3/csGHaZ599MbKyau8xjU3Nv7rp3/7ww0HnnHlm5a9+UPYB3lpTaDu4usKVmVbAZ5aC8/kElcO825hYQvqeZD8kb4upKZIMG3RBFZINefC4W9HO2QG1Hjq1RrD3McD+x9kQq9VauHfv3rn7q6rmVu3fj4b6xpE11QeT9u7bB4/Xe9jrqlBw+PKrlVtnzpg+5rC/JH7Qtv65jc7M9AkMDL83HDeE3aVY4x21sKLKopyWvRfakBrJ+kx4PB1ogQtKvQY6tQG8LM0iAC2A879uQ+x2+7Qffvhh2o8/bpy2/vsNIw8ePJjkdDrQ0d52pOsY9fnjTjwei/6xAMNHjLggLy+vguO42l+7IEXgwapvKxyZGQWh7IHgApQOkb2idnM8VCSPSgHeYYPOxyGJwAj2otHVBoU+AYmmRITCea6+d/S/AgjP88kbN/2w4IP3Ppy/7rsNBYcOHkBiUgoGlZVgxIgRmDD5qHVDygb2QKGuXb78y5EvvfQiSU3Bry2o9O9JSUkoHzQEVXt3IyMrG2PHjcPZfz3rlimTp7ybkpISFxi+pkbnrvtqe09WRhkyB4BjuSmZeuoTU8hiDPmNMckgMHgk6jPg8fegLeRAt9uH9NRUqNQqUfVJ4In/L9qSf6vKcrv5wk8+emfJ62+/OXfjT5uTkox6jJ84unfuqWdUjBo9+tVBgwZt728nL1++euSHn7y34P13353rdMQ33vJ1ue66RZhz6hx89MknWLViJVrbO5Gfn4e/nHXGZxdeeOnjWVlpFfLP29cs/dSRnTUHmQOFrK0U+ImGOTrik3RUTHCoUDI1pfOEkKhLgyfQC2vQAeiMCAYCMGi10Gi1YsQRf3uplP8Gt5ck4uOPP775ySefumnHjp3Iyy/AGWedvuOvfzlr+4ABAy/nOM5zuLu/u7s7+dVXX53/9ptvzv95y5YRv/S9TT//jHFjx6Knq6vuk08/Kfjgw0/x/Q8/IC83BxfMn7/u4ssvXZJiMlXYv3tmnjPZ8E4ofzg4AoIAkWKMuPGFCIg8WlcoAIcdGrcPSdo0uPydaA16ENQakGpOQUd7B/RGI7QaMuaxUX4EYOWfCQjP84UbN/645J/33j+34vsNSaOGDcHFl1/12tw5s141mUxRO/RwAZF/btu2bckvv/zy3LfffmtJZ2dXH5VmMiVi+/atS0tKShcwu8nz076vWHvzsy88P33FN+twVHkurpszDIOPPw6qQWPhdTojafLYtHm8NIiUVidr7HFBYe+FRZUBDxxo8PWC0yfBnJzEhK27qwsGgxEarQhIH2dN+IE/zYbYbI7599x/35Lnn3uhIDfTgoU33Fz3t/POXaLRaF79LYv/a9956ZXX57/52otz11Z8N0f+WbJJP//88ySNRhOOQ3ief+Drd1+4afsHj2Cd1YaE4lJc/Y+FGDaiHD6fD4FAMOKN9utRRbypgMcOY4cNifp0uBVe1HvaoTRYGBjBYAAKhZIBohcBicqDxbjLf4qEbNiw4fGbbrrp2r17K3Heeef13nbbjTdnZGQ/+2uL+kf9+8KF18/75LOPHqitrmFSc+6557321ltvzpeuz7fVZPoOLLf26DV4Y2MdPn3vHdhddlxwwQWY99dzoFIr4afYox9TIeYIWZwR8DmQ0NoJgykTfm8v6oJOcLokpFrMCFL9FjwUShU6O9phNJqYhEhBYNT1RYn8wwFZtmxZ7b333F2QmZmNB/5577qTZsycfzgu5x8FhnQdh8OR+fXXX8977tnnpq1ctTJZSp3wHc3lrq1vrLRZMgpQOgZGvQrV+2vx/NNPY/W6b3Hc5OOx6OYFyMjJgtvlDgfRfe5PoUDQ64ShrQ0mbTpcKh+sjl6EEkxItaQiGKTIXqh9KDgOnZ2dMBoT/n2ABAKBuQuvvebxV954t+C0WTPqHn/yqXkWi+WI0hV/NCix1zu4ae2MPPuWFV3JFvDFo8AhyNZMo1GDlNSbb76Ot155CwlJetx9210YNXkcnA5HxPuV9D4lAJ02KDvbkKxKg0PtRpPLDl6XiMzMTAQC/kgIzpEgKdHd2RltQ/o8rGRD/oD0e0dHR/n8iy7+n5xeRdJtt9+26rpF1z/AcdzvNtp/JEC8v3eG7ZunVtgtFigHTAQYGNIK82zREow6rFuzGQ8+dj9cPb1YuOgmnDJ3OpwOZ+RWCAy3HYq2FiRqUhBSBFBt6wafbEFmRjqzP7GlWqpxdHd3waD/BaMuOl4Up/yu5GJbW9uMs+fNW7F79148/thDd5177vlL/siF/COuxXc25rq2vLXbpTcmeYZOhIqXPXKMUTUYDairb8Btt9yC2uo6LLnjHpwwcxpTXzxlbb12aNpbkcglQRHyYo/fDoXJgiwCg9RUnFyXQqlEZ3sHjAlGaH8hDlGpVGhrbfvtgLS0tEyc99dzfqzZX4kXXnn1tZNOOilsOP+IhfwjrsG3tWW6tr/8olOrPIUfegJCKg6ghQt7T30rfTqdDh1d7bjtxltRc6gOCxddj1POmAVnpxW6hiaYtClEFcEedzeCiekoyMmCnww4i1+IcSVkbiWjTZVA5vYajdD0E4cQGC0trXC53b8NkN7e3plnnn3203u2by946613Ljj2+GP/FHf294BCkuHc8tb3bo2yIDD8WPAUdIXpOiwyEXS9PEMrvkfekNNtw1WXX4OWpg7cev1CzBhaAviUCCg8qHb70ebzY8TgIQiEiPoWex25lhNsSNjtlQMGQK1WobWlHV293RhSXnbkgPyPH687d968Pau+WVv8+uuvXXDKKSf/54HB1+jcq97/0qYNHs+POBFQqgXJiKXihF3bvml1tUYNu92BRddcC66uAQ/dvAj5gwdjb3cHQsmpMBqMbNeTqypIXJy6OsvCixIiDwzF/UC/0dLchp7OXgwcXMw2xxHZEALjrrvuXvn40sePefTxRy658O8Xvvh7dvGf8V2er9F5VrzzqU0Vmh4aOx1QqIFQP2AwQMKGJKp6xyuUUPF++Pf+jIfufx4OmxPnLboYKcPHIj8jHY3WFqQkJ0cAkYQu5qH6M+pkwNutHeiy9WBgaRFjFB0xyeHDTz588YL5l1x03cJrVy1ZsmTGn7Ggv+eatGFcq/71qUvpnh4YMws8R14L6XRRqUepJ0nPy6t8khBx4EMBaA7uQ6I2CfU1+7DwvidgKBqApc8/AaWSR0trezQg8VJUJCFKJctlJSSQl6Vl90I2o6urE62tnSgvK0WQbRiOgXvYEnKwsnLGsSedvGLcqOFbPvr006OPJCn4exb5cL8rSMbbnzo0/umBUadQPVRgFcbWMeTUznhPT9zboBeqQ7tg4hMY99aWm4TPK/bgyYf+hdmnn46bb7kO9fWNSE5OEiRE/oqhAjGjTm6vwQi1RgO1SsUCRWtbKwYNHMj2CuMCH0mBiuf58tNOP2Pfvn37sGrlinMLCwvfPtyF+nd8jknGyvs/9fh6p/smnQFotIKaCqujyM7vw6mSQGF8aAX4UBCq6h1I9GvAhXi0mw1QZJfClGjAQ/98AO+/+z7uu/sBjBg/Enq1hklAFOh9svIRo24w6tHT0YvG1kYMKi8XaNiidDBADldCli17avWtd9x94ovPPHnnWWeffc+/Y5GP5DfcX9270s7bpgcnngFeqQXHHlJuHw4DEE4JBH1QVu9CUlCHQNCNLksy1GmF4MnYchxCQR7XXH0tbB0duPOeu1A2pExMk8juNhYQ0aibEhOZW9tqbUJJ6QAZEZuopfSlw2SdHKqrO+HYKVO/Pv744+tefvml8v8kVcUkY/ndt3tC9ts8k86AQmOIENkkQKJUlIymI60hSQhTUz6oqnci0QOEOA5OkwHenAFQCs0c7NPkVe3YuQP/uOpqTBo7Gfc8fB/8HrHW309Vlwy1zWaD3+9HR3s7SgcMYFLFJENed+EPAxAqLl12+WW7V69clbO+ouLYvKKi/5iUiGTA3e6m6b5JfwGnMwEhqS1AZrB/DRBSUwRGzV4keHwAr4DDZEBvTiEMKj0U8l4PnofBZMIzy57Fm6+9iocfeQwTJo+Dx+3pt+VArVajtq4OvT09GDR4MIiAwYdJ2tF64FdV1rdr1z521llnLVh8xx2fXXvttXOPRI382Z91rXzgcZet+drAUacjZDKDY0m9mFefQlOMhBB1M8hDUbMdBrcbSmhhS1TBlVEGjVoDJS1eVPMND5Vag+7eLlx90RXIsGTgwSf+BYVaixCLc/ousMvpwO69+zB48GAYDXqB5CBPsTDho/sKQalS9+9l8TyfccopM1o62nvx06YfUziO6/mzF/lwr+/+4r4lbmftYt/R5yCUlCbQdcJBn0T5lwI1WcNMDG+KXFtSU0aXByo/j15LEnrT8mHQG6CkjieWQpeDKOglY2Ii3nrjXTz60P24/d4HMXfmCXC53FG3T7vd4XCgubkZSSYTks0WVmuJS8gWA8tfJMqtXrPqxb+eec5FzzzzzKq/nP2X/5iYw73qoSXungOLvZPPBk9gBES+bawOl8V7kZWS8ab4INSHdkPX28nazFyWFNSrU5FmtkCr04KXGnHYlyN9HZSv4jge3Z023Hnz7XDxfjz//DNQKRUIsaIUxR4KuJwuNNTXo6S0lKXxtTo9tFTCDUf0giEX+kV+xe3leb74zNNPO9TZ68CqFcsHabXaI2L/He5OP9LPuVf8a4m368Bi95RzWMo7mjsVh1Uod3vFdWWuLQ+oDmyG3t4LTVABW5oF3cm5sLs8LI1OCyoXuHBqRMxKklF2OB3Y+tM2LF68BDfecgtOP30WnE4Xc12dLhcaGhpQWFAAvV6Pjo4OGAwGERBZt5UMDLq9fmvqW7b8vPjEk2YueWLp0kfOO++c64904f6Mz3tX/HOJs3XfYvcx54OzZIAj8rOUtpU4smHigdyFkvmhtLuDIQRqNiO5sxtqXgFbehpakvNhTkpCZ2cXUpKToFKr4xCvIhE98ac6OzuQnJqK665cAK/HiWdfeQkhPsQMfG1tLYqLCqHR6dmNdHZQ+j0hwjqJsiFSHyLXfzvCtQsW7P169TfZe/bsyvxPcHOZZDTtXuw57nzwqRkAGXBpdx0u+pwCQargVW5HcnczlEodbKlmNBszkUJqSi2kwM0WC4gf1e+LJXYVaG9vR05WFlat/gaLl9yBZU8sw7ARQ3Ggaj/yCwqg0+sRCoXCycW4JIeYZGdcL8tqtQ45Ztq03eede+5Xd9555ymH+7x/1ue8qx5Z4q77ebH7xIvBW9IjNkMuBPIfjxQChXdFL4ZiC75mB1JamqEKcbCnJqMpuQhmsxkatZrxbVta2mBJtUClEo1vXDsEKDkOre0djHPl9Phw9UWXYED5YMy/ZD4D1KjTISjaIFJvUSXcMJ9LdBiYh/ULNuTtd957deHCRX9f8dUXZ44ePfqjP2uhD+e67q8fW+Kv+Wlx97F/hSaL6hFybyrOFeQLKG8JUKqhqtoGQ3sdVEEOjqwM1OszkZqWDq1GzVxR+mprWwfMKckC5TMesOESiiAh9NnEpGQ88egT+Pijj/Ds88+heEARfF6RtSIa+O5OOS9LYtHHsN/jtSPwPG+eN29eZ09HS+/Kbyr+V9WV+9snl/j2VyzuPf48aLIGgveTW3nYuVARLR68UoPQoS1IammA2s/DkW5GvSkfqWkZrKRKaoXVIXgebe0CIEoJkHi7htQex7HPWlJSoNapsHLFGvzzvrtxx213YPrMGfDKmPpCPYQKVCLrJLY/UeZWK5UxJAdrW9tZE8eMfv+6G2956h/XXHXN4eziP+Mz3m+XLnHsr1jsnXYeuLxywOeWuYeyZvz+flxMFIYUSqgpHVK9jyUOHWkWVJsKkZWZCY0mAoak2VpaWmAhUrRcZfX5DQ5KDmjv6EJSsgm1NbXIKizATf+4HnqdDsueXwan3RHeO0IJtxMGogHFLeFG/HWK6qO23KuvvfHejTdc/5f169dMLSsbsv7PWOxfu6b368eWeCu/Wew5/kL488ugYGpK9pIHar8kMEoN+INbkdiwH6oQD4clHQeNucjKy4NOoxElI2KImMpqbYPZYhYA+QWrThF8e1sbS6Hn5eYjOzMTL7z0It577328+OJryMpIgZ+RHoR6iEBySBDc3j7cXmGDUY2ktcUaDcjll1/p3le1z79u7drEX1u4P+Pf3eueWeLb/dVi97RzESoYBs4XkyOSB3/xxlZIAHEqKOr2wHRoNxR8EPa0LBzS5yCrIB86shlSLikMqFA6bWltg8Wc0teGyIBnn1Rx2PTdDygfMgQp5mSoNBps/mEzbrz+Jtx00y2YOfcEOJ1C5E4xDSM59EsD4tgGaG5qRjDgjwDS09MzZubJMzaPGz/pp6VLHyPy0r/15V3/0hLv1g8Wu06cD8ZEJzXVn2T0d2fkSRF3qn4v9FUboePVcKVlYZcuF/lF+TDq9JF0uRxQZp04hFWW3O2VSSSl4Om/+w8eYl1uJSXFLKKnlIfL7sall12CMePG4Ibrr4fX52c7nwHS2T+3V6VUwdrcDJfHg9LS0ggglZV7Fxwz7YTHli174o0zzzjzb/9ONHw/vLLA88Obj7mOPx+hkjGiayveQT9p7QiVR/ocgaGGonYXEvZvBhVDHZZU7FbnoaikEIYEE4J+sZOWGY1oW8TxYK5slJcl/xzAdvLeyipkpacjGOJhMiWEK4ZGkxHXL7oRbY3teOrZJ6DSUFMnkfAECYnHOiE11dTcBLfbi5KiAnDytuhPPvls9ZVXXHZixbp1d5WVlf3bCG/+9a9Mc296e61zyungB08VJUPUEVEqKiZ4jqmP8yotlLW7oN/3IzRQwG1Jw3ZDDgyJicjP/oUGLOmnfgkQCYyd+5GeZUF6eiqaieRAHhmVivkQNHodPn3jIzz78rN46e1XkWFODweGXbJ2BIm3RWBYrVZ4PB4UFBQw1zuqg2rJkjvb3//g09SdOzZfoFL9OW0DsVLn3/TW7Z51L9zjmPoXYNjxgNcZPbaiP+mI2uEceJUGivod0O/ZCG2Ag92SjF2GEhQOKIXLYYM5ORUc66SVG4MYCfkFlUWSsWdHFTKzUmFJMzMb1NYuIzlQtU+tQWVVJa689DLcd/e9mHzsVAS8PsGoU+qEiHIiyYFUHDkFNocDxYWF4ZR82O2lQtTcuad1kxfw3nvvTeI47k8nSvs3vT/Du+aJFY7jzgU/5BjAG2szZPDJg7Rw8CcsKE91i7pdMOzeCBoN5kk2Y4++AHmDhkGr4tDa0or0jAxw1OUkjwGiPDSZUZe8LDGwVCkUqDywH+ZkkgwL4++Sl0XqjdGARBeZ5be6e3DuvHPw93nz8fcrz4fb6RZUlsjtVWvVIJvR3t6GXrsTBXm5zMawghVHrBMxDuF5fuS48RO2zZx5svPuu+5K+LPth3/LxzO8Xz+6wn306QiMngl4yG8Xd3CYshMHEOktKQonApy1Erqta6ANAKHkFGwxl6FgQDkMOi38Pj97+PT0dKafo2ieTMriuL3My6LkIlhKverAQZZwTEtLRZDI1JyCxSEUGCanpLBFZN4Ux8HrCeCma69DSnYaHnjoATht9rBRJ9aJ3mgQwOjpRWFBPjgq5co2SVhlNbe2zj1m6rGfXL9owY7LLrt05J8JCANj1UMrXEefAd/YWVB5XdG+eZwsejzCIUXgXEsV9JtXQuPn4U1OgWf0yeBNqVByIVaboCi8X0DiSYgsMCQdv6+qCslJicjOIP5upDxMi9/aJrjIjHUikEmZtCy5cwnaO9rw5JNPhZeRjLrJZILT5URHZxcK8gugVAnzGcMveepk2+5tC047ZfZjTz2x7LNZc+b8aaVaz5aPZ/hXPLjCdvTp4MaeIsYZcYgHkY0bPeKI3T+pKR24pr0wbP0GGq8PHksaXKOmg0/KgJIVrITCDzXOUM97ejqprJjxSfLfEC7LCG1kqLU6HfYfPABqsc5ISxPbDCJeH0XfHW1tSCZAmOQJFzCaTHjo0YewecMmLFv2FBKSEpk6svX2wu3xwuVyIi8vj7nJrAAmV79khyQa0Jo1FfdfcOGFt7z91htLjzrqKNYk+Ue//DuWz/B+ftcK58Q5CE4+HRwZcIktLldF8h+WdrHchmgNDAz9z19C7QnCm5oG96gZCCakQY0AjZcMX4EyrgIgcVRWlNsr2pCWVmRkZqCutoYVlLKysoUGnKjJP0LqhNkQ8rIIEHFhTUmJeO351/D+u+/h8WVPIK8whwF96NAhlt8qLSmBQg6G/FlJQiRAPvvsi6evW/CPKz748MObRo0Z8+AfDsae5TN8Hy1e4ZowC/4pZ4MjAx5rK2KpmHKVIgJC3hTXWgP9D59D63XCa7LAMelUhExp0HAhEQzxQjwRF0WVlZbO9HW/JDnRnHR0dbPdbNDrkZ2Tw/rL2SvG/VZyCrSSl0U2hJwF8V6pv+Sz95fjuaefxkNLH8HgYWXo6uxCZVUVBpWXMZCFSQ4x+TjxrXDF8J133nvjjjvvPG/lii8uLy0d+NwfCYh/39fTfB/c/Kpr7MkFvil/hSLgjYxUjce1jf1xcTF4tRZor4Vhw0dQ2+3wWbLgHD8TvgQL9PIxR7KdT42XYQlh0tjPi+OgUavw09qfkJqfjsLCAtZBGyE4RCfNyGOj5hqLRVRZ4j3qDTqsWrEOD993Hx594jEUDshHU1MzjAYDkpPNEZJDP88dJjm8+sorn99z772z161bd3Zubu77fxQg/sq1M3zvLlrhHjcT3mnnsqCPIuJIlBwn0JA1u4Q1GdmM1mrofvgUOkcP/Cmp6Bl3KvxGC4xxE3aCmaWuprANoUWI/Tn2Fge1RoWt2/ahpqEJM084mkXkUVnyGAeAClRUD0lOSQ4bdfqC1qDHz2t/xI233Yjb77sdJUUlSLNkwu10QqfTQ6MTSQ59bkR40rDKev7559c+8tjSad9VfD09IyN79R8BCIHhJTCGnwj/SX+XUXXCNjCaeyu3IzLbwWt04FoOiGDYGBgtw04El5YPk0Yt5k6jvRWpSkjswDayIalkQ0TVEkOG1qrU2LZjN2oUQDLHY0JRMVQawe2VM0IiaxJjQ0QviwGi1WDrzkrcsPAfWLDwGsyYPoMZfQoMf6mDSrp2WGU988wzXy194smT13737bFZaVm/m53oq/l+YuD1a350lx0F74zLwPEiiU1uN8IVPbEFLJ6wEBhtNdBv+Biang74k1NBTsF+WxBFOZli5CvbPlG6nkPIH0B7awfSc9LFLidZ+oUDtGoNdu7ejQNuPwpGDUPPrl2YNKAUKi2N3pOTI6K3KHlZbW3tLNMrN+p6nRYbf96BG69bgPseuA9TjjqaGXMpdRKVfo/j3ocBee3VV9+++557/lpRUXFKXl7eV79HQviaTZmu1y/b6B04ucAz83JwPEVsQv9D+BXj7oXfl290Ypb3tkH7zSvQ2noRSLagZ8wMeCxFcHd3IDk5WWR1RPf0RQwmx/ouyD1lXhbZEBlgNHeEwDjo86Fg6FAWOPbs3YPxRUVQ66iPQ3bLMYtH16Lrpkhur9j+7A96sX5VBR58+GHc89A/cdSkyWw6hJQ66bfpM9aov/3Oe88vvvP2S5YvX37uwIEDf3Orgb9m0wz/q5escJaNg3vmVVCHaZPikscas36MGxlwrrMBuoq3oLVRc6UFXeNmwZmYjfSUJDTU1SLFbGbks76eU4RWQ25ve4sVGZlZ4VnrdCfUm7517z409biQPW4EFKEQI1jbKiujAYm3M6ltQCzhskhdIYx3dXnc6OhoQXuzDbfceiPu/9d9OGryUUxC+h2tEXP9sFH/7LPPHlx47bU3fPDRR1ePGTNm2W+REHfNtkK8euF2e+nwJP9kfKn5AAAgAElEQVSp10MREuoBkeZK0X+MUgV9g0LmTXU3w7DmTah6Whk7sWv0DNiS85GemMCMaGNDPVIsFmipD+QXPKdQMMBIakRmoOiaJITKpPt278XBXhdyJo0GR3ULuktiqR8BIEIcksIacNxeN5obm1BYXIwtP2zFPUuW4MFHH8bwMcMY673fekgsIFIc8sP3319/7t/mP/T6a6/cPmXKlPuOFBDeuq3Q9dyFFY6CQQU49UYE1Rw4ee1BxCKsTqQfiE2h02Tnnlbo174BVUs9eHMaOsedCltSHjKSE1lcQekJYgWmmi3Q6OLo+rCXxrEKHAEiqSyVVo2aPVXY2uNA6fgR4Fk7s/gFhQK9hwkI2RCqLqalWthMk/q6GmRl58CSbsFXX67BE/98EA88+iCGjhqMQCDwiwUqeUWXno0p9u27tp92+uzZHy9d+sTLs+ecdtGRAEKj8ULPnVPhzygqcJ19B6BSiEx0WU1D7kFJ4MQYdZZC7+2Adu1rULfUImTJRPeomehOzkOWJTlcdqVkXmNjI8wpKdCS8Q0TomMDOGqwCTD3lFInWp0G1ftr8HNHD8rHDEWAqD9yaY0HSHT4EV4WAqSLPKeEBDQ2NCAzK4vlqnQGHd557V28+vJrePTJpRhYXoSAP8CCQ/KyftGoszEf4qjxtra2kUdPPXbbzddfv/HCiy+YdLiA0DhV9zPzKrzZhQWeM28FSN3IafnxuLWxD0k2mVSPrQPGb96CsmU/uAQz2sfPQVdKHnJSLQIhQdxKxCqUAGFUTYm8HEMeEOKQAGuSycvLRU1tIzbvt2LAsaOF68V4UTSpQVBZhVAzCmhs6iCyKiqFEtaWFvR0dyMnJxumRBrFFERScjKWLn0Mq1d+g2eeeRqWVDPrrhWMen8kB+GnSJU2WZsECaF6yPjxE7unn3xi671335t5OIDQOFX3c6dVeNPzCjzz7gSvNoCTc6diSqSCoo7juVA6xNYD5bo3YGyoBJ+QjLYxc9Bpzkd+RhpbPGFphP+VAElKMbOxefJJGdH3LfTv9fR0w9Xrxqb2bgwcN1S4UmzDDMv8y1WWqArjSAjz1kIhbNqyBQNLSxhTkcCgj+oMejz44D+xZ2clnlr2lMDl5TiBBkR96v3QgOiZrC1UPfRGfNHTTju9Q6NVWd59571EjqMBs/2/+O6aZPfS07d7zWkFnnPuBfOKwuTnw4FT/IxKDRAD/dvXoW/YAz4pBW2jZqM9tQSFWemyXJKUPxGi2aamRiSnmKGjClyf6DviKJB627trN6ravSiZMhKUJojlqUX0EAFShfFFBVAz29T3OShjTGDW1taw6xQVF4cllPZfyB/CzQtvQMjI4cmnnobX4WLe3S95WeRZEePE6XZicHl5BJC77rprwwfvfzB51+5dx3Ac911/y8o72jLdj5z8rM+UMMd93j/BaxPAkUfFXpGFC/9VfiGZhHAKFfw+F/Qrn4eh8QA4oxHNo2ajI7UUBdk02jvABr5EXhEJaWpsREqKWQgMJRsSY6fYlARrM7789ieMOns2c22j1RSHELmstLupoZPj0LNnT3RgKMsYUKRP/N/qg4eQlpHBNgs1cgrJRY61qtl7nLhk/iWYetwxuOGWRbBTgUpBgHT3jdSpJUJNdfVmeBxeFA8oZuz5sFB+8cXyRZddeskj31SsXTS4rOyxeIDw3dZC95OzKnyJSQWuc+8H9KZo7lTcxvw+a8pYhPCHoP/qWWgadoEzJaNm2EzYsstRnCWQA6Te7SigxXxPQ2MjUlNSRC9L2gvhaJON8e5s68LaXYeQPCiXuchR0BKdJxSCxu6ENzmR/RlKJXr37sOEkmKoaPKbLOXPwAiFcODgIaSnpyHdYkZTS6ss2yu0EljbmnDe2edj4cKbcPpZs+F2ucIj/qJmLjLVq2KeGtVIiiiZGSKSg2y0xr59+8Ycd+zxm5948rGXzzrr7D6eFoHhXHZaRUiFAuf8h8EbkiJ0HXnk3Z9OkIRHqQLnD0L71TIoandAY0qCddRcHFClY3hZETixJBqVR5KpD3INo72s6K1DktHV1o11u2uQN7EcHS3tSM9MZ8GbdJmQUgnzjxthbK6G9eTTENLrmK637dsnBIZM8sStoODYBqk+VM3AoGCQwGlta2fMeUlCiLT97dq1uHvxYrzw4osoLi5mLjHVzLs6RCopA1rganV1dqO3twdFRTRWQ5iG2qelbfKkCfz4CZN/evzxaKIcU1NL52z0BXwFnkseRchkEcdwx/JsY1SWpMWkpyPKjC8A3VfPQFW7HUp9AurHzEVXRiksBgPrqSDD90uc6mgvS9T14s8SGD2t7Uwy8qeMBseH0NHShrSM9MhwfIUC6p5e5H3xMUJQoWXmLHjSLExKYuMQiRhx4OBBpKWmRgw4x4mpEzMDmlRWgsmIBxc/jA2bNuDF119kNX3aAFJyURrxR5nkjo5OdHZ1YGDpQNFp6WcY/+WXX7Fp957d5d+vXx+mkvLu7kL3o9PfDQR8E5wXLQVPlBqJ4hkvn81mi8hMCnNrGLEJvMcL3YrnoaneDEWiGdVDj4c9fyzK8rLQ2trKXEO2O2M7oWS2J8rLEh+afoLUVE+nDWt2HkTh1BFQhsgMUXKxHWkZaUK2l2bJaTRI/elnpOz8GcGkJDRPnwVfQgKLSeSAMLsS4lFTUwOL2QyLxcLcaHpRgYpoQBLJgeIS+sHLL7sCeZYc3HrPnWzH02Ow/hDRy9Ib9Ghv72AslJKSEpFzEVmsPpOt33jjjcU33HjLknUV304oKyvbxLu7p7mXzn42aOsoc1z6BEKWbCjYgHqZayPTtdEdqzJVQgUkXwDa1S9DW7ke0CegZsR09OSPRXlBnlD77uxEQkICa56J6AvxT3EAocWgYWOMqKxWwd5lx+qtVcibPAQa8t5AXg8163cwCZEACf0PQz1t+ZdIrtsPR2YhrKfOYXO0CAAJECK9kTdVU1ePxIQEpGekiYwTQeQjJVwhl6XRaXFw30FcfdXVOOeCc3HhhRfBZRccValhJ8FkgsvlQlc3TdkuZKmcKOK1vIQrLUBzc/OgSePH7b3hjrt/uurSCx93P3DUO8GuNtiuehpceh44D9XBRbKAzAOJKtbH2hAm0gpoVr4A3c61bPS2a8rZqM8fiTyzGUGRsUfEMbppiUwWrbYiGyBKZWl1rApn73Zg9eZ9yJ88BDqNNty9RLqemOep6WlswQnXkEqLnNWfw3jwENqnnoyeYQMAf4ABRoBMKC5iWeTqmhrWzpyWLpIcwrcgMAwZDUjkZen1Bnz2ycd49NHHseypZzB4aBm8YtMO2QtbTy98lNPq6kLJgBJ21mc8pyVuS9vpZ5yxy223D/34NDWC1VWwX/4kkFkAeF1hPRy1hSX1IpcU6QN0hgaVR796HsY96xDS6tB9zDlQjpoBNR9geR6mAoje39mFBBm779cASUwxw2TUw2t3YuWmfciZOJilUoSoXngx42ttFYy6SKAOafXI/PwTaFRAw7STAZqPT2kUSi5WVWFCcTGLwnV6AzIy0gVydjjIFVAhFUU0IMmoU9Z5wVUL4HDb8MxLz9AEQDZFiKSJJsYdqqljDMqysvLIWA16wLCPK1yXaKl9YtF3337zXu6VK2+bPS4DPRc+DmQWCjZD6qmOipjiFOulxWBTcpTQrn4Bmh1roFRp4Jw8F95Jp0MptaaJ0kYBHBk66qGg1HhcGyTeKZMQSi6mp4P3h/Dl+q0oPHoY29WxwkmAdBGBOo2opAqW0VXaHEjavQtdEycIB7WIUTvVQwiQbJWK0XcoIRk+WkLKu4mbL0IDMrNWhN7ubsyb9xf87fyL8Le/nQuv2NNCO56m0h04sB/l5eWsRVro2IrJWohv9JEQmh/iefLkuvaft6V/PfoszLriGoRcDpkxiPmj/MLyyJZJhgLa1S/BsP0b1iLgPnYe7ONmQevzi6cBRb4cLSFiDCD9VMxv0E23tlqhU2mwYeteJE8chQSDPqbRPyIhLc2tyMjOYN5QiBa79hAQAJwDSgHKSLMSP4cgx6FpzQ8YWZbPDgxgQ8XkzyRLBUlNn0QlTU5JwhuvvI1nn30GTz/3NMrLy+DzedlEaxo6Q7m0RJOJ9SJGJjmI6iQmXAhne5l4ExiPz/iUr9k7vfuyh3HIl4CS3FR24agxeIIyiJOUEu+eCGoKFYxfvwjNltUUjsJ9zFmwjzoFKj4ANTucN/p12BJCSTidFocq92NnZQ1Sp05AYoIBodgzooRVZu0HPV3dsJCEkNfEZpuQ9xMkaxsGg/7Q3NQCvr4WJ4wfAyUlSeWqWLxeuFtWLFCZqWLIKXDdwuugUmnwr0eIQRViv2W3OdDa2sLiDIfdDq1eDy11+8o3WngZJJUlpt8ZGMvmfOqv3DrdfeWjCOQPgSboY4GNcIEYzSb/K+MJRzwGXqmG+utXYdjyFYI8B/+0s9AzdjZo6rmacVnFU5WlYyHIa1FwfVVWnKwwSUfQ48M7X61FzpQxoAUJn0UbT455Hs2NVmTmZIJTqaByOGBssKJnSJkwBYIIzhyHlvp6QKWBpqcLEylSD2eR5ReNiCp5SBRlZ2dlYM/OPaB2zNtvuhUnnTETPreXRegNzVYUFeQxFmR7G81+l+b2Shu677WZDeH3LM90f/v0s/z2bXN4ix6hRDMUAR9TOewWaEez3SJLPrBCiuC1hA/MIpqaQsV0pNrRjZBKg8C46eiaeAbUISIU0Fni4iScsKcm7gyFaEMkox4rQ4z3qkTQ58Oan7bDlahD3oBS1gIgNxxsFKykakgiAgF0tneyOITX6ZC4Yyt8CYnwFBSyMgFlBTobGtkkn/SiIvTspUid0u/xsr0yFSuSrbNysnHP4vuwefMmvPreGzBpDXA7XawJJ5d6Gek6oLkovzy3VzIqDBD7hdkbOD0mczrx4VgYD/BEk2c5H4puJI+AY+9FLQJLSbD5dCzaJa+KzhdXGpPQOG4ulIMmwiDRJ+WiL9sgzI3s7ISJASKzIeIakP4P+HxYt3UrdGVlCDidMCQLHFzpRQZb29kBf2Iyu3fBywqijVInWRmM5JCydRN6Bg9FSG9gUt3Z1MSCx4yCAiYtPXFSJzFaJSxVvXYbmhtasODaa+kUCFx2+cVo6+6CtaExDEbcSQ6xgbPMYWA2xHFlNu+cfwd4S07UbCgF7WeOBkkGwCvEs5Mk28ECw8gr7KIrVVC0N8BY8Q4UHA/ruLlQDzsGaogFJnmVUPakYZUVR0KIGhPwevHtli1QFxYhMzcH1upqJKamitlegFerYaw9hOyVK9B0/MlwlRYzlSTFIZb0NKiddpgO7kfXuMlMijobGphkpBEY1GfCSA6UficJiWGdxDwtqSyb3YFlS5dh0+aNePmlV5BoSUTN/oPIyctjlFFh0qg4t/eIJOSqHL73xlegTC8A7/dFxxpSNU4iK8jni4RBiTACOYqQmyuR8NEjrG/COnYOVMOOgYbRFSX+VexpmIIeb+9oR4IpMcrtZbFDMICvftwEY0kRLIw0rUBrXR1MRHIgCSHVxCuQs/oL6Bqt6Jo8Ad1DR0JBgPAhtDa3Ij0vF6YdO8AlpcA+oBjdtXUI+LxILywUlpoACZMcJJUVUxKWmVLqR9/w3Y+4+ZYbcf6583HxFReicu8+ZGVnwUi9jLIT3uLO7e1j72RG3XFVDu+89jkEM3KFNHR48aWFi2Ndw0Y+Km8CnnRg6yEkfEqzbTlYx54K1fDjoAmfRiCjkcpVllLJat8sUhfjEFr4kN+H9T9sgaK0GKk56fAHgkI/d10dEi0CySGkVEHbZkXuyi+BAA/rtBPgLi5i3hSRHHpowk9ONvTNVvgzM9De2MjsXFp+fpRDEM06kdmQcKpJWA9h2DGP6xbciIamBjz5/JOw9/QgOyObNXaGA1NJ3caZ2xvP/6D36Nk5AsS24Hlw6TkioS3m4+E1jz9KO+yEsfYyHRQNu2H84mko1Uo0jzsN6iFT+kpITHBJuSFqZJECQ8qQ0si+5T9tgbqoEDnZGYwsQC9KUTNARJXFYouq/cj67msEVVo0nHYWgok0f1EYkG9taUeuXgOF3oB2pwt+p4OpKXJUwiQHWrxfLeEKgBiNenz2ybd46J934qqrr8C4KROQbEpFgilBiOpjEqNMQn5NZVGxSqWC3WEXAHEsfAF8GgESc5hiZLXjWAx5MkuUZ/LtWw/C9PlTbEBe84TToR56DDTEXoxJP8hhJzvBclmJiawsGwr68O2PO6DLK0BqcQZ83khDfRQgTEKUMFUdRPbXn6Nn0FC0HT+dqTnmiAdD6OzqRmlzI1p1OrRp9cgrLBC2QwzJgYx+JNsb38vSaNWwNrbgqiuvZM06N992MzJSM5FgMsiSj7IwjWV7fx0Qyj702uzMO+McV2Xz9gXPAel5goTEps7jlWX7iQt5GuJorYLp82XMMWOAxJOQmN4Q8rIodULZXq1eg/UV2+ArykZmfiaComRIAIYBEVUWqRpNRxdy1qxA15Bx6B05GPD6RPZGCG1NLcjftxNVJYNQNKCIZXGFlEj0S0ouClTSGEBEZ0Sv0eD+xffhmw3rcNG8C3HK2bNg0OvEfJd4PXma5ZeG8bNNIUi83W4HVUEH0+kIzn/k8fYrH0Eou1zgU8XmWfoA1H+gzsgOjXtg+vJppmvJy2JGXe5lScYxDKpg1Du7upBoMuL7jbvhLcpGfm4W/LHHn8pVlgSIoHyRsL8Sai+PzmHlUIjpmQCnRPDnjVBSHWPiFGj4IMsux3v1C4i4wMS7euett/DIIw9j9ozZOO+yC5FhtggpG1ZrEa8bc/lfOh2BwKAovtnahKLCQpYcjQaEbjxm9x4JcYGidEXrQRjJqCvIqB+OlyXMGuzq7MDuXbXw52Qge2AefCLFM3bxJAkhL4sxF5lhUUJPs0KoEzY7C1xQNP7tncDqr5Ezdzb8YmJPUlfkKpN0KaQT2aKopNFGXafTYt/OKiy8bgHowLMnnlkGl8uGRKNAbZUfwR2r5eOesCMWrtxuN+rr6xkYVAciVosAyBUPI5QzWKiR95OJjEpfyVdJpr4IEK7lIBI+Xcrc3ubx/Rj1KNA5xipcs/Z7OE0W5I0cgKA3zgxe8TfjAkJxqU9I8wTVCpYzare2YkdrF4Z3W2E56igE5ZkGtQr66lroenrQNWqkkEbph9tLgSrVMW5YsAjWjlYsfeYplBUPREMDsSeThabPWHMqW5+wDZHOD2E1dSU8bjejEw0YUAqFQsWKVawdwXFtHu+4glTWIHDByCS0yDUjxaG4sh4FiIY1ZJq+fIalOprGzoF66NRolRXlRXOM+EbjVPdYrTCPGA5NuKs1vnMoN+phMoJSCW1NDXRuN2yjRsHb3Izv23rgLSxGdnsbRmWbGaWISQdRdrx+5H3wLqBVomHOWQhqaRgH+hh16lf3eb1YtHAhtm2rwuNPPYApk4+Cy+lEW0enrOmznzWKMep0OgKpML/Py0rDRIRQqWg6kZCSZ4A4/5HL2698TLQhMkBiEojh5YlnY8T3qNtJUb0Fpq9fZXyk5lGzoBpxbAwg4gQG8IzQcODAQSb6nUE/uhJMMOqFSZ7M5lEyUqWCwusN+xoESJsYGEoqiz5jOlAFhUKN1lQLKmqt4IYNxthNFWgyF2NUUQaLxBkgajUSd+xA2qYf4E3NQNP0kxHqA4iWEfKCoQAevvshrFyzGouuuwtn/uV4uJweVjFkTZ/SJIfwDfeNs+TDZ3R6HTweNxrr65Gdnw8DDVGTxX2sph6WkJxB0VN44m/Qvu/KJUSlg6JuG0yrXmY146axp7LUSZRRF4EmnXmgqgY6gwaF+XnYfOgQXGYzm8omgaFtb4ehsQbdQ0eFpx5IgFAcIkkIBaTm+kOwtbbji4Q0aMtLYe7tRk51JRrSijA+k464E/JbAZ0Beau/hJ5+LzMPzbNnQ0GsS5nbq08wMlt6/5J78NEHX+PqRZfhsqsugMshjP8IA8KGz/z6+SHUQUVOARHhSBtkZufAZNBHHAxxDQUJWZDP2y9/WJAQRgeNfR2hymrci8RVL7Ah9gwQikO4CFmark5z1Q/sq2a2I78wm3kq2+vq4TSbYaDYglNAHfQja/mXMHRYUX3W+fAlmlgmIR4gCq0G2h17sLO1HTXHToVOrcSILdtQZ0mDP8RhfJaZAcJr1NA0tiLr21VQ+pzoHjYGPRMngPf5wjX1owYOYNXNh+5+EB9+8iUuvmw+/rHoSjidTsHfYSl7WZ/6rwEinoVLIwWbmxuRl5sLPct1yU7+kewjzTpxLizg7RfcjVDh6Phzqvp0Pf2C28tU1maYvn4tIiFkQwgQMZVF7cc1tbVQcCrk5+ewKQlUJ9lRV8cAIQkJKlUw1jci69vl4JRq1M89DT5TUhQgkpdFAPX09KJ1xx44B5bCnpUOzh/AyE0/YevwUUjo6MGYnFRG/1F3dyNv3SoEu13QqHjUzD4zEtUrFPDU1GBgchL+9a8HsXHDTzjnvItxxfUXIeD0RhG0o4bPxAISs15s8k9rKzo62lklkuoiYTY/yw1Kx4XTcRXq/zlFdFFh0H7BvYpQIXkbMfMNY324eGpMrrIodVKzFabVr8QAIjjn1G1UXVvLEC0qKEBAbJjRqFTYVlsblhBySc0bvkNK5R6EoEDzzNPhzkmHwusLSwgBQkdHONvbsbndAWdOJlKVITgMBpg7OpBhrcf2EeORdqgOowuJKwzkfPouOiZOIRmFwu+HqzgXPBsow0GhUqK24kd8+cbLOHSoGn8//2JcdO1F8NmcMj0vTBT6RZVF1ln0IlnZIBjErp07kZ+fi7S0jDCxI2KThZMR2FAb5vYuKgzYL7hHGSocJbYuix/9TUZdC1X1biR8/SIbWC+oLMHLks7RIENZXFSMgNRhRWVZpRLb6+rCNiSkViP3yy+gabdCGfDCmVeE9knT4Es0ghhXZNSTKfPr9eK75m4EBhSg2NoIzu1G3aDB0Ho9MDjd6DQmIKWpDROSDNB2dCKkCsFeMoAlHtloWNkRFzTo7M3778e6Dz/EzTffjlPOnouQ0xM+sEu+gGGVFe+UNlFCKKagATgUZxAw2dnZ4VFOfRyksMoiG7KowG+/4F7VHwOIDlz1ZiTGqCyjRom6unr2cIJkSEk4IcLVKFXYWlMDt8XCVBYBkv3VV9C3NKPtuOMQhBa5az9H1+DR6DpqCrrqqmHQ6LC+uQua8iJQcS1rzx7GAGnJz4OuuRO9+VkI+kMw1zfiLzu/Rf2Y4+AqLoGCzeWKzmAz3q9KidVLX8Dk4QNxzIyT4HPSlKL4JpVJCLVF9wMIXZ0aTutqapCWkckKZRSFE/9XKPCJZWxmniMZc1YxdC4q9NkvuFcdKhhx5DYk5o7DqZPlzzHxaxo7G4ZRJ6C1oY4NcSksLIw+M1bcTaTKtlXXwJUqAEIRtKG5E5zfBhftaL8fiT9vRoq1Br3lI7DXH8TBkB7evEzoU/QIKpTI3rePvAU4k0woqq3GlolTobHbcMon7yIwZhLsA8uZNxW7yIwPEAqhua4OaOvGjEljBRpo3BySUPuRs07CXpbo+7CyQTCIutpa1sNCRDtqoSZDHq6GSkDIE66kChkg1xV67Ocv1oZKxoMLEP8qPmeoXy84yu3VQlG3XXB7lQq0jZuDFvMAKP1e5BcW9h3mwjYqB41SGbYhYbeXypl0Hrnfz3YVZXVVPg45qz5GsPEQPpr7d3gKcqByuZlElezaCbfRCFNPN/aXlkGrAgw93chubEHyuHFQBfwsoxb1ItshqkAFjXG19WBsXh7UFAtJZ9tKcUKY2Cbk3gRub7TbS/dLKXiSjNS0CFNeOjaPzZjvz0kS83Sc64Zid+85t+r4AZNiej2kWz8Ct1elhaJ2mxAY0gCwkilw547AgEKBvxv9kogTpLIIkIiXJf+cpFwo3eB0u+GoaUJpXRX2ms1QG/WoHDKK7dpk6ortaIPW2YsdY6dg3gcv4sup0xEKaTE5zYQgBZkxF1byAPG2KIjNzMtB5x4aHFAoxjfhLR9NCWISIgsMxWPzhM4O6q6qRXJyCjtxgZpO5TMX2eCAPvSiSF6StSO4bih29Z5zm54vnQjOLxtcHFazUhgex9jHSBNNBmVelghI9eATYBx9AnTMOZEvhyhWImn71wAhNeD3+dBKOjk/Fwe7vdC11GPez6vxwaSTUDlpKgoqd2HW2pXYNHgcSusPYFvBaFSOKkN6fRPG5KaFA0MhfQJ2jHdLSztCAS9yiPDNAz1S0yfrDxEXILZgykIRBavfMF6W1FvOcaiurkZSIo0DTAtvwHC2l/gCTEJkdqOPi6xkgDh7z7nNEAZELhhytzdeGr4/QL59XaiHjJ4N1bBp0NCsE8nnlhtUKWoXJcQhBoZRG1lknBAYSenpSE1LxcZaK1oz0lDUVIf0hlZYgnYYu+3IsLUhwOmwdtQYVI8ZD87pQFJTK8aKgEiPQEa5vakFAZ8HOSXUWBNkqiRcoJIadkSV2qcKGJ51QjMXlSxLW1N9CImJyUhnE+gihb7o4ypEolzYkMuelOWyFOBc1xfbe8+9LeGPA2QLTN++wQBpGj1bcHuJ5BCWkIhXIXJKwyorFhAhESdIRnJmJkzJyTTlG5trmtCaZoEqKQFGuxPTv/wUaa5O+PwBtOaUYuXsOSyt7g+EkNzUyiSEHXXEtAPHDob0OBzILilmBpi9T9nefZUYXyy2RUcRPKIdM8moU688JQxra2pYwEcGnA3KlL2iK4YyQOJsUAau84biXvs5tyWGBogqq4/1PkIbUhMLCOWy+h4pJ2d+a5SKPjaE1BRxsRgYGRlIoFayYJANGtt6sB4t6anQ6bXw6fUo2lGFGes/gUKlwNai0Vh//HEwBP3w+YNhQBjRmlrJWtvhdtiRW1LCImZ2dkhU0+eA6B7DOOshTCXtRKrFzCp9ZBuysrIikiFLwMrPwiUSQ8TLlc6GBsMAACAASURBVA50iThR7HQE5w0lvbZzbk3kSyf0DQxjypFyDRaPeMLc3potSPzmdRYMNY2eJUu/xz5ZX6MuSQgtEAODDKQMDLoCuchbDzWgNd3CjLoiFMDkbypQ3lwJX0iLhKAPy4+bjrqBZQj4gzDXN2N0bhqjkvZ0dsJjsyGzuCh8olr4rlQq1vQZMer9+JWi20u1+l6bjeXjcrLFcYBxjmGKnBYtMvvlcYjsJwSmvB2c+8bSHvuZi5ICg4+J72XJ3Nrw9+Xvxbq9JCEUGFI/uRyQmCCIGc0Yo06AUPqdJMEq2gxSU/JDGwUJaYA1M41NaTvp809hTzBhzMGt2Fw2GrvLh6JkzwEUuOrwxbTZ0PR6MDk7hZ20SXSdrKKiGAdDfKr+Rmv0eVYONBB5249bYM5IEZjyYvolXhN85HQEikPIyxKDwhgwiCnf1tYGznnTwC7X3KtTAsNPEA5O+R0vwcvagsRv32BrHbEhYgQQdgwiI5SESF10eylS12hQX1kFS04OTCkRMCRnhwDZUt2EFksyZlV8A2tuLnr0RoyuqsI3k6ejNy8RSc2tmFWxHG3GVBwsKEZqZhrcnZ3IKCwUiOGxdXW6HTZaQ2IuijNU4qyFWq1h3VUE7tDhw6PHdMSpFUVsCLXrqfpE6pRyp8GbLVYrBpQNZIB0uuZeY/YPO77vERGiixg/h9D3bkllESCmNW+ygKtpzGyRdSIR8OR3HDlUUcr2koT0NluRYLEgkcCQdUNJgJCe3drQAqW7F8Ud7dg0cQpGb/4RDZYMJNkcqBo9HAriHfiC0Dc34u9rPkJVwUD4jj8FCtqdbDf3vXfiJPfS4ICBA1kKJt6LKoiHqg/BqDcwHhXVONhkazl5PAbsSIFKitQj/Db6rs1mZ8dVUBOoWqthgHS4TrvGEqBh+HEl5AiNevUWJKx5W2AuDjsBypEnQkMdMv3ZIzFS31FXj/1dXUjJyEQqNVnGBJLsLtj8dg65Kz/AJyOnwp2bg4zaaph6HbAbNEjy+VA5dDhUPh94jQq6hjYM3vIThuhU6MpMg6NoIEIJRkYgZ7fDJFYUW7kNIW5vlMEUiGz19Q3sS0X5+Wi2tgo9hlL6XQJZHm6J51WxSQ4sdSIGhuIABIdDACOvoJDNRSFHhnPdOKDdftZ1qcFBU36fDaEb0eqh3Lcexg0fs+CpeeQMoWLI+u3kL5mHAQ5atRIr1m6GLzsVhSX5zFvpk9gTS7C56ytw0NaLjdNPBYx6DN2yCXVFxUhpboGRV6By8EC20KZOB8yNNdCYzchPTkH66i9g8DhRe9q58Bt0yFj1FRQJJlinTGEuctwBZuJeJMlooFwXB+Tl5Qu9i/LTEcJdyX0HskVoQIKESGeKuN0e1pqXT2DohMONmdvruGlgq3vOVen+4SeK03z6KUDFrGdcei8Bsvc7JPzwKRPj5hHToabAkItpDxMpLKTPmTdWV4uqrm6YysuhVVEfSQx89MBqDQz7DyDNWoMvs8vQnmGGxmiA2u2CT6dHzr59MAQ47Bk/EmnNVuibulA+KB8d7Z1IyUiHxulE6pZN8NKYJFsP9DXVcGXmoHnO6VD4fVFt0XL2O5OMOkqhc8jOyRUWTl5TZxIiZR4iAic9gTxSp5iFkq4EBpVyBTA0gtNClUgmITcPbHHOuTrDP+yEaBsSVvcxqMeYgSicyIYc+Amm7z9iVM7mkdPFEq4QkkWccOFbtCNoDHdKUhJaPB7YkpKEbC9rFBJ6TtgrxCPt+zVwDB0OLtmMzXUtaE43I8vlhMrthrW4GNmHquFOSWKlUS0Fg+XF8IV4WJtakJGZzjLBIa0Wlp83w/zzD4CShzerAI2nnAqOmjTj0IAIjObmJsYRo0NX2GGRrEAlO65CAkSyIzGbSW5DqOmTGCvNVisysjJZ17F0oLG0Hpzz1kHNvbMuzcLw6fGN+hF4XcQ6Ue77Hgk/fsJ676xDjxNsCHF7Y15k0Kprapmbm5uTI5AcqArIaurUKARkrl8Pe2YmdF1t0PrcaJp2ErQqBbYdqENDQR6mbvoOB8qGo9ecAp3PB01HB1Lau1E6rIzV5aktgLpwU1JTWbcUqSWV3YXcFZ9C6bChd8Q4dIwb15eXpdWyYlJLs5WVDagbitr7pE7kqAIVm6rd15WNlhDqME5k07LpOG9q0zYlmGTuvLDLWfrddcugZtfJF2f5xpwszGT/PS9RZRl//Jw17DSNmCGmToSaeviBFArGS9LrdcjMygbJAStQmc1s3gnRehIPHkBaxVpQidCZPRBtJ0xjzZpapZK5vR0mHYbXHMTusRPAqxTI2bUXAzpbEJxyLKOOErOdvDTqU6fdSPkmyvjqu3uR8cWX0IY8qJk1FwGLWWDKy/pD9AkJaGluhtvrQ35+ntihIZRZafGJHMfm9rL0O/mTcaZmi+tIEkIxELVd0zEWdBo19ZBIaop9TFwboaZ+6+BG28kX5WD0ycIpN3F86T5uYrzAkI3q0wkqa/0HzDY0Dz8JKokoJwaG9KOUFaX+u5zsLFZXVysU2FpTC7dYoBJKuJ9Ba21FMCcV9SfNYVlSmnlFvvymuhZoHZ1QQYHGYcOh7nVjxM8/IT8zCR1DRgh98GIXLrUC0CQH1thDNWtvEEVffQhbaik6p04ARKaNxO2dPKAUnd3d7NQ0On47Mg5QSscLJ7V1sEHKNHxGCnD72g9aa3bWVHMTurt7kJufxyRD8CBl7R3ipYX0+62DGxynXJobGHHi7/ayeI0eqkrRyyJjPfQEaEccDzVjnQjnY9TW1bE0NM0qZCQHohzIClQkIYqgAgVfvAdFZze6x4xDx4RJUHrcbF8QIJsPNSCv/iBqx46DCxxyW9pQ7rVBTZSbwcOhpE4wtvOELtws6sINj2fiGGA8HS4pT3/TSaAHDqDEZILX50Nefn7klAp5dlakAbW0d8KckiRMtqZXHLeXfpPU1M6dO1FYUMimCQlZh5g8ligmDBDnrYPre2dcmIfRM4V6yO8hWxNR7sBGZtRZtnfIsVCPOhFa4o4oFBEwmGSIIyvCgNSB5bL0Oij8HLK/+AgalxPWk06BKzONEagZIAoOm5q6ofLZ0J6fj0GVlUgdVI7kQ1WM/tMzfBSURKAmiWDzRYQ+dfq75EqzZtbYAI4m0H2/CcWWJHaYmDAchtYuQtORECKjHp51Eo5Dop0fel6a6EAnsVFBi6nmcBApOjlhGpCgCpnKct0+uM4589J8//CTIm7vb7QjrINq/48wff8xA6RxyDRoR50EnYJHQ1MzAzs3N5cV/VnNWqyeRRWoCJCQAvkfvgpfSg6aZkwXjK64CZUaDWqqqlCZaMZAWxfT8ZxWByN5Q2otAqlmYhgIOzYUgrW5FZmiDekT24jPSdOE2q3t8O6qwnHTJjA1E06vxImL+7q9IoVUJJ+xgprfx+YLp6emsWtRP2Q42ytfXynHF3Z7bx9S6zz2vAL/xLmCl9VP/8ThYMS8rMoNSCAJIW7vsBOgHT0d7U317LJkMyLNMhHfXQIkXA/hAF19J/ypJgSN2sg8EroJBQfjN19jrzkN2YPKWf2bkpGKAM8CvECCPrz72awT8rxoxF9sCVcGRkdrF/jqWpTmmpGZKZycJmyWaCKbZGDJQHe0tiLFQjZEjEPETC85DxTYEhjmFGHOFlUXpdMRIuvYt0WQBYauO4ZXu6bNK/JPOg3w0MSfWJKD7O+y2lJ/gaGCAsONXwgNO4OmoiNrOFShgACGpAJivASNKrqmzm5BXBQpzcEkRKmEobsL1V+thnbWqbAk6YXDvxQK6BuboHb1onfISCi9AlmDAGmx9i8h5NrSbMbg/kM4asIQ9HY7Bc+JuomjXNloL4bNW5G8LMYZFgw7m0wqcrEorUIlXvpmJw3WYXN7xXpI3N1NzEUy6ncMP+Q4Zl5xYNJp0RISTsCJCB1GCRdqHUJ7K5D001cseDqQNwaO4vEoyc1iG46lnsOGVPJaFIgtUEk/zbSOzH30+APQbdwAl1YL1Zhx0Eh6ntoR6uuQ1FSP1glHg2PfkmaddMGSJnhZcpVFYPR22uDaXYVjJg+GTmNCk7UVFnMSVOEJEXFqD2ztFWhnJ0tHTthhRS4GRgMSTQms1MxmLkrnGFJ/SHjWiXgnfaikBMidww86ps4rCUw+DRxJiPTqL6cofz8maicvS713HQyihNSUTIJu/MkwKOLNy414Gn1UVswOYg8bCKC+ph5j2xpQWTgAiZYUaNiocSBIEfimzazFoOn4E+AYWMb61ON7WcKYjp4uG7q37cNJRw+FTicEbaRaSL1Rz4ropsWd88Lmo7Bzc2miHEmGgqliYinSBDqiALEjk2hUGY2J7e5ho5miplRErbN4sCSx3113jDjgnDav1D9prhgYxpq+I8j2qnVQ7f0OLDAklTX4GKjG0LAyOilB6p2QpER6VuJl9S3hSvdLBjTg86OuvhFFXAipGg32KpXi+SFEquMAfxB5qz+H1tqGtklHwTZc6IqiaUDU/UQLJEkIcXjtPTa4d+5nakqvT2ARPYHe0tIKS6olcsC95EnE2JPwcRXJSUy9UbX+UE0tkhMTo8BgJo/mqYRVlnTkkfh0UvVQ1BpCpH7H8Cr7MfMGkspSsKlx/RDlDkNlkZclAcJRB9WgqczLYqM14tKAhBvrT0Jod1F/elNdE1ItSUhMsSDEB9HW2Bie5EBRvaalDTnLPyMlhbbjZsJemMcGJEsT5aRInRbH0eOEtaoSp4wqg1YnzGxn684Oi2yPOS1aZtiFD7GNRZtNOFjSzMCrra0HDbjMzMwUyIDhPSy0r0nHVTAbwrzLGCqpqLoEG3Ln8ErH1LPLgpNOB3yuw2uLlqsUeQlXDohSiebBx0Az6kQRkDj5HvHGJaMuZ53QApHb2nCgGqlZGTAlGGHcvQu2CRPRfuBAZJIDFYoO1SFjzQpwOjXqZp8FH50zQsOYZV4WDUd29jjRenA/ZgwqgdZIiUjRQolxCTu+mw6sZ0Y9jpMs3i8BQoPJyGg3NDYxdURgyOk/UvBH8UyXWA9hpyPIpY2BLHpytDG1WnCuu8fus4+fWR6aeg5AQy5jbcgv9YfE3DO5vUxCfvqSVQybB5HKOkmoh/yf9r47QKry3Pt3ppdt7C7LNhZ2FymKKKAIKLoYFYkaSUwsMVGJMf3G+OXmu8nNd3Mh0WjsFfWqkURi/1QSC4toxAqIoKjUbbN1ttepW+bmed73nHnPzCwsggaTbP4IwuyZc87zPv33/B493k4RxiUKhH3G4BBa6uuRnZsDb14ePLv3AdEAgsfNRltVlaEhIzY7snbtQf7Lz6Fv1gI0nXoaLCNiTp2jrOZWFBYXIDA0jK73PsCZs6fB4SFhKGuYpED8rWSycnkHrvhJcJKGabGiraML/b3dTKchSkCJLQaO85gArrO9netXRDzAPyrESAqEcp+e7j5ogZVzdgYWnD9j+OQLBdHlwQhEfGd8ctrhgl0KhJKjxumL4JizRFZ7EyOW1HmIDnJopWglK5MpNOj15mx6A30zjgUyM03kM1TBtff0IHfrVnTMm4dIZgYssiQTGxriwp47LQPNu3fhzOlTkJ6RFV+laoCd6RE03k1IkVNy2CsfVBLu2K02bN2+HeNzclBSIhpqcTOlv0DxfKM79fiLI9/R09vLBUsttHLuR30LvnTMCAkk0WSlSm0PEGXFdv4VmZtf4BpP44xFcMyWAjFpiCpJgDWEmDtzs+G0O9HeUA9vZiYyibx4JCaolfbsRNfseWyzVfIZvhJtLbDYmRqECXT08x0bQWODH5GOTpw9YzK8GdniJCf+yH2G/tZ25JDJslNJXU26dG0REVpdnY8H/o855mi5aEaPGBM7hsKHEHdwmq4hCe9U9NX70NDUgpkzppFA5nwYWLhsZnTh15LzkNFqDUlaJPtPCSar5ZgKWI8/Q460JTygcTotXO3lgZ1x49DX1sZLfjOIFZRauZQM7tnDgzpdRx8Nx8iIMYVL5YjE16bfGteSwlHUbtiM8ytmwplJeUEKYUhnTbUtQrRzKGsSSFw7KOKjPMNht8LucB0A5KBoSBeZNgXkINWJfBXtN2lsbsGMqVNFYhhaOWdH9/zzjtUWXSwz9VGoXxM7hWp1U/83pxva9peRvv1l0ZqddjLsc5eIKVzVSZqGVjQWyI6mRtT29SFrXA6yiC+XQlHO2K2wdfXQOgEMpqeBFs4njkUnHngyE5GhEdTv2InZmW6UTp0WbwZJs2MuoopiI+UWOeOkhuhKLJWDSiTUV6dIrWTSJDQ3tSCHSycJ5XfD55oFwqUTYxyBSPptGOjrQ2N9M46aQcVMC19bC66c80Fw4bJZQkNklGU07eWjqpqSGBarR5Q2OW9fj/Rt6/nizTNOhW02dQxTmQkheHLgNquGDa+/h5GSfOTzIKgoJtJMiKe3CyMxG6+VoFCWxhz2JxCmfCUt2r0HC0oKEB2OYlyG5H437j2ZRI3yeJGH5Mo8JA5TolJJQwP11a3cV6fPEqhNX5tn9v+q2RImS2xHkCSY1OCy2hAMDDAMdQpVljmTEbOLWvA3J2wPzFly/NDib0qn/skTQzg9sL33MrzbK5l8v3H6QriIxZoJzJSEULfx1HSyWnnApZpADjNmgAZA9TsYdrmQ++4WRHLyEJhYZBKIOqduWFA5ZNm2cycWlEzkF0Ys1eNpW7ROEKMnqKZCipjuoJdMoazu1AUIQ2z0IWJ+QpyMjAxzJZsz9VQwIFVdmUbDpuygsvP1gqEg6qsbUDqVOE4cBv5MgK2vXbgtPOvk2ZEzr4IW7jfnIftz6qOYrNj2l5GxfYMgn5l+Cqxz9LBXPznm6GLfvn2cYBHIoTc9nVdn0ycISejs7kTart3omjePsbkUw6dichBuQGrGzp04saiQZ/vCkQiPJE/Izzctlkzt1AF/a4fi1EUCSLgp8j3FJSU8gKNTyyb3Q1J1DImBjso0XXB5vHC5HLxnitDyZaXlcLgJ/iNKLPGe+nUnbQ0cf8bcwdO/CS1EZPufHAYUc7ph37YB3u3r+QU2TV0gfAibrLggqPZD6llVXY3MtEwUFRfg3aoqnsKl1i6HsgMDKH7qcUSKiuE/a6lc/5BaIAzOBuDf8SFmF0xAcVExBocG2XSJ1asTuKduKEVipEhBr8mp00kWwhgciqJkomzlykiRe+q8T10C5UaLLGQeQklkZmYm50W1tTWYNLmUsQOGMKRPFaWT607aGpy1eG70jOXQwpJWXE0ZUpVMEv+dtUUDHC5g+wZkbF/PfYvGGafArZosWaYmR1hXQ4gTL/KLaYZ8hGcMCXXCMCCbnTFUOdvfRl/RVLSeeaYxm5eoIawZJIwPP8TsCXkoLC4WdID098b67vi6iuSpT3HvhlPPpqKlE63NLex/ishncKWa9VaW2WkXbqvsqUs2oFRRMnM0WtHb08t+qbGpifMWD9FqyNFsNdihEFgLXjd/S/+sihOHzlgOS0gKJDE7T47cU8bycHhg2bYeae9v4OjDP2MRLOTUOcoS+QGdgnpfA2etBQVUbhhmv0GoE+Y6YdSJHUWPPwnPQCu6y45B5+lfAIg6Sg5G6k6d6LupL96wbRtmFxQwZwqthdD7EwJ10sKLH7kUM9qPkqnnTcjjFRfhaIS7m0wYnVBGoRdnGos2tD/5C0gQpGm0/YFox71eT8IohNmEa8FrT9ocmH3GvKHTLwN0DRmLAFJ9xuGGddsGFgjhoFSTpaMUG+obYNVsKCrJxxAN9iHG4AQDdeJxc0+9mHrqfb3omr8AHTOPNYjGTFwnbjcatm/HrLw8JgGjvbN6xEMvksojVFI3TJYeyiZGkWK5N9qJXGB4EIPDQyhiIcpBUUM7UjA5GCCHhKo4FyGFlm5/fwfKy0rFyiRm7VM6PoqwRcfwugWbAseefFL0zKtgOQwCib2/AZnbKA/R0DJjEawMchjmaKOe4nibBROLikX5Qt4YVXvfr6tDv5wP0QaB4mcehTZsReNXv4ZhR9z+M3cI0TPl56Nt924cm5WF0vIywUCnVwPoxJNAhofRTgvu2YdIGr7ECo4wWAxq2L13L/9/WWmpaPmmGmvjaFg2qHKzOX8wGOWU3IXH8YYGmdfF4xLFR/o7I0TW/6CYQiGQG059Jzjt+PmRpf8GS7Avfu4To6jRtEZ9QIIBvbceXtqkY7Oh4agT4Z5zNk/h0mY1emHFxXJEWh8PTii/e3ljmhX5b76JgeJJ6C8rMUAOuslqb2lGZ3U9TigqRPkU0gyF9dSIgWmH1DBHWXkTBFAu5VgFgwuI87ET1VU1OHbWLB5RYy5F40dxEDqBvynsNffHGZQ3OISa2hoUFRfzn6mZFt+FqyTfeolGJzALXr/ordDR8xZGzvoONN2HSB99wLmQxOyd8pAtf4Z35zt8ivxT58N+wtnoaKY4fgjFE0uShiI5FlCmcL2yHEJVXEYJKuUOhvs6HNjy0kacVJiHY46bhuEhZaDUFD2JdXet/hbkJ+xTV88Wz5F3daC/t58paqn1agAXDESi/sJlZ496JwRRTcxDpPZQlaG2uhr5hYXcSKMoi6rComM4Wj1Kh5Jev+jNwIy5J0eX/ACW0H43rh7Qs8ScHljffQFpOzdBs8TQMm0+uguP5xqZiOOVjF2ptKZqUKkKyueDpWFBy84qpHf5MX/+AskGqjeOEh7UFGUlhr2SpZo4dbu70dPdg5KJxejo6sG4rAzRD+GIKt6rUKd89AYV170UsLUeAFBuRbkPcTJSn52+w6hlKWbN9ELjGnLKG8EZJ54SXfJ9aIdNIO+wr9iTPwOhsvkom1jI5iMR/a4DHlI1qNSbJeEQg3XTB3sxzaMhI9OLjHQRngpTnDyXkTLsVWRGmkGjZLTGbtKkEgH5pNJJ9jj+s0kgKjBD0nEQNfo4Ig6QJJjiAGnYu3cvJkyYwFtAyYeRLxUNKqkhEruVfLoNDTnl9b6j5y2KnfU9QBdI4vEcNVxMgAiRyXr3L/Ds3MQ3UldyHNzzzxNMDiabLC8ov+dAIAer046GrTsw0W7D7DnHor6unnlGaBmXqdljkuLoJos3p/XSkGU7C4MWdxHBstjeqQhExTop4waJYS/9E5loEgaxOORk58h6nKhliZ46CURu7hnlfYo85PpTXgvNOOG08Nk/gCUoTZYpLJSGOVWCaISR8hucXtg2/xmeXZu4uNg05UQ45lAtS44jpCqTKU5dZ5Qz/DKBBOw21GzfgxLLEObOnYmRYQ1NDfXI4qw+QSBJPiTZqbNm0MRraysmlZTw4D/5GgY5UMcwJ5v31CZriH6IBMWfv41QJyJTpxe5e99e5IzL4fWsOk89yVPMqXfD45YTVLpjNuKEeFQkoqwbK14NlM9cHD3nalhCepSVEFMf0HuIDxAMyLJ1HTI+fpsWtKFxyolwskD00kmKwIVnDFOjTqiy699VjQmDg5gzdwYGoyP8Ahob6rl5RayeYp+6cr/y+VLlIWRe+vv60NLahtKSYtgVVlD6fKu/lTuGcVyWfmnjonJgJ146IYHu2buXUYqCVkMmpvJR9Y4hzxia9qknHHRjPuTm018NlsxYHP3ST6AdokC42rvleXjJqWsx+KfNh2X2WXFWUlWwxsFIFgjdKnXm9u2tRXEwgAUnHotolLBdMVGCaCQSY9oWTZSyCTWLlALJ4wpucCDAhPeTyUwx6b+sQPMAaIwjJ/Ih7KhNEaQS20viACoujh+fi6p9PmRkupnJganRDRADBQWiQGmCAamhq/pZAG6PizRk8YZg6TFfiJ73Y2iqyVJR8KNFagmaE3N5YN+i+xALmstPgO2Es+X+kBRqlsKHUNir2a2o/7gGEzGIObNoDZ1+A4IokjSEljoSS9uoTp0n4WJoa/WjoKAQoVCQESJEosYnVUGcMANKjOgyBAyIy++qoNWgQeYh7d3d6GjuwrjsTBROzGdOFkOKCqMDCYRoYlM6dZnI0qv2pHnw+rqNa6VAjv5C9DxFQ0zZ7Nh9SIx8yJa/CA2xAg1T5sE9Z0nCyiMpGOU7VKeekZGOxo/qMN4axLwZ0zA4TLWk+EnmZhHvU5cL7nWTpSeaisIQepDGEbxpXjQ2NfMADiV96vy7Xi3QNYQEYvTUU8wNckONZuXffhe5RQUomVSIQeapT10rM7MBOcz7b+UEAGnGlre3+uy+kela4KbF60KTj1kSPffHoh+S6KhTlBpMtTTl3w0f8tGb0Ow2tJSfACuhTnQfcgCnHp2Qh8aGFkwcHMBJxxyLiKx1qd9HMM+mxkamz6OXa9IQU+tA/EdzUxNv2ywrK+UgIKmvLss3omPYJpy6EfYqjBPSvND3V1XVsfk79rgZcvYwwdcoxiCJ+1116tJMbXp7S2WLD8uWL18e1gI3VawLls5cMnjOj815yGh+3fTQKcLeTc/Bs2crC6ShbDaXToRTT9XAEQ9CxcUPm5tQ0xvCpKFBzJ55FKIxfSTA/B3kQ6hASYW6UQUitzQHBgLYtm0bTjhhbnztaaLllBElPVYrw4AI2xtHtMdR8MJcUg8nnbda2xjRHicOUBCJqkAIbN3VlZSp09mkMvyWtzdX2n1Ytnj5cobsa4GbvrAuWDJlSfT8f1eirDGGVYkfo0z97Wfh3bedV2q0TDlRdAz1/SEpnTp4+HPD65sxZNFwxonHM/THtNpa+T0KSX319cjlpWDJjAsM9bRaEY2EUV1dizS3B8WTJirXS+6n63GaASUlDTEOpMjYaV/7vqoavteS4iI0tfjNpRM1VpemSDh1ykM65DgCmSwBlHN73dj+xubKugahGcavh25Zsi5UULQkfMF/Qgv2Jpusg5GNSSAamsrnwD6XnLqZalw1i8RdQhlyXU0N5s6ezSCG0YRBv6ebLBq4NDJ19URqFoQjYTTU+VBUXISBwABycvQF99K+KoVN3faLjqGAklJFWe0uEjBu394auNOcPMLNNTKeD5ERmUGYqcBlq1m6qAAAHnJJREFUpUCT11WMcLfwvU3bKxvqBk3C4IMRuvXM5wP5JedEv/JzEfbyPSfX9o1nHs1k0Qco7N20Ft7d73Lm2jL5eNjmnwu73sJV/RERKNvtPEQ/EBxgJ002nrJmw0GmqDgn7lNXUxDSjEgkwqCJwpKJ8FDnj6q9egs3ldlUfAgdjFwDSiq+nIMIJkO2omgi8WIRk4MsLvI4ApXfVXNsdrqqQIhchrR6945dlXt2frRs+fIVhmbENeTWM5/vz590ztAFP/8bEXzvIaHf4fTC+vYz0mRpaJx4LJwLv5QsENpKRktX2lpBBCxl5VPQ5m9lgByFpEmDp8oz6gLJpAFRSgz5WIl+BuUBtdVVKCqeyFvTqEfSYfRDpHSTAgvxNhlKqqNOeCGzIEurq/WBgMqU1ev43ZQCkaZIFCTjX6ILhKq96Znp2PfhrsqdH6cWhqEhofzic8IX/FIIRLWFqfIPU3kiAdtLIAfKQ/a8x0gj/8RZsJ5yPuy8/U2y8ZPZsdvQ2uLHQDCAMlruqNFSMLKzKVav6qdafi+dWILlUJTlonI2vUqLxqFnva+Op11JGJT0UceQSt+sIftt4YpzaKBObFQOsTE5DAElJhHnMIOpRfidRKS8n9qfTq2ROW4cGmp9lR9/8EFKzTBee/CWM/4yUFh67tBX/uPgBJJoTuh9k0ColrX3PbZ6jSXHwbXgPNgltQYdHDJJrX4/r3+YNKlUIMRpEL9zDAvued8fgdYakJ0toix64Gg0yt1I6nuwMHhjDXUMh8YoEAFyEMXFLLjdHvh8PhaioNXQd3NJbSLUSSuFyPFq72i9I7q//sAAWn1NlXv37N6vMFhDgree9Vwof+L5ka/8Iu7UdR9yoAzdVF5QBbJN7MItngXbydJkSUxVV0c77xYkwi4SBmOtCB7a0cUzIEljXwnfQTkCvSxCGBKGi4VR70Pe+DxkZgnyGd1kxDVEok4Sqix8KvWwNyZ2guSNz2EzFwyGUVpeLnrgupOQiSLVpwhATc0nXgqmh2m6/1VMltPtxEdbP6isrtp3QGEIgdz2xecGcnLOH7poBbRgT7JTV6u86gOlcLigFi5l6ru3MLdH88RZsJNAhgc5cunu6uTKJ5UvBLe6CAGpWkoAA2LHSdoWrZosJcqifIH69ORws3OzkZU5Lk6DIYVImiJ66goMSA9JDRshT31MbBul+fJwNMp9dZ6nF3GqMiJtiS902c92BPo10uDauvrKD7dsGZMwhEDuOOe5cE72+eGvSYEkvAAlojzwHw2n/j7nIU0TZ8Gx8Dy4LeC1eF2dXZhUVsZQTD0e570ZxupVL2gTjU4okOoLyYe0NDUhPT1DgNWyszAuK1sud9TLPMJJDxFQjgQyQfEh6gEzjjZFUxbs+OgjuBxOTD1qCvsgwUKdfBeEqCHfRC1cQ0NU5/u3dUkUkjc01Vduf3TLsuUrkqOp0V6mFr5tybP9OeOXDV688m/7j3rk50ZL0/cvE6plWd96ChnVOwCbA/786XCc9mUEe7rQ3upHaWmZ5BxRuLOkk4z7EHLUo9tKaq/W+nwI9wYxvjCHm0HscNn0xLWOhzwJddLajvH5pCG6SicnhpSZUwewuqYGc2bPZoce52hX++ljWOhCfs7hQEdTi2/Tiy8ev/ya2/WXeuADTU8QvuPcpweysy6IXqgKxNxiMF1pf6UTtxe215+Ep+Yj0VOfPBvRmRXo9rcwYs9mt8oqq9neMVVFRyf7EEJmmCCfusbKvrpmjeHdLdtRXFyEgvx80RpO6n2LlzgyRDCgDhD4zYiyEs4aaRyZUto0SlpnJHuGX0i205RjjebUSRhtLS2+vRterfjy92+gdUIH9aOFb1/6dCA394LIYTJZ9reehqd6B2N7a8ZPQcekuSgvLuSY3rzaWoH70xAlRVkpFtwLP0PvnIQ5xGj2zs5OTCf2UBrw5xcsXxrLOT7mwLPnFPYSDEg/A4oPoZ4LjQpQebx8SjlogoqrvUbpJH6P6lvVhz6pjWyYLCrZOBzo7/D73n32lYpLrjl4YfDdh+/44tN9WdkXDF2yEtpAT2qwtX5a9LtKyLgNS+H0wv7mk/BWfwiN1uKll8B7+gVIs1nBezgNS2TOZnk5sSoQtRcjgWw0Dk3Y2HRvOgYjYWRmUYOK/I0OclDHHcSLJDAzC0TN1KWABXlAN7dtp06bBi02YrRlk0ba9DK81C4BlKPuouBQ4cDEbsdAh9+3+blXP7EwhEDuPO/JYGba18KXXPe3pYbd4pV/EmwvHVQXCeQpeGo+5rDXX3YsrPPOhZ2bQSrnopnYhbcVpIqy9KgUmuBYJ56ticWcc4iOodxZmxCW6ueG0e9GlCVeHP2wmeru5uru1KlHGdltS4ufcVlGtTdVn8G0Nk+UTqgKHOjv9G16cm3FJdfcftBmStU+LXT3l54IehwXRr5xI7SAFEiqHshYLKErDfY3pA+xamgsmgnnQkoMZU/diHDim8n4dBH/VGcX0lVkBk+KUcIG1gx6ibRYixPOxkZkjBsHr8utwD3jTSxda2gDG7GS5ubnSh8imD/7BvrR3NCIqdOns5Dof/Q95G8oaiOnbm7hmmMdA3XC2xGcCEX7fe88/NgVl/zs7tfG8pr29xktdNd5jwfTXBdFLv1dXCDmatnYv8OVBtsbT0gNGYG/eBasemLIpiJ19EQvm/KFtPQMo5alO2ESBjFfFxQWchmDTi8JhJxvHAakH/I4RNPA9hLYmpy6xSqE0d+L+oYm3l1OZo27kRwDEOpETuEm4bLM9SndZBF14HAk4nvjsScPWTP0l6yF7jn/8aDHeVHk0hvMJisRrjKaWFRtcskoy7ebTVZD0dFwcXFRMlub0ICGlxWJIY0Op9MGAVmfYk1oZnxXcVGhnKeQ5feGRoYBGQ0q497Mzp0ESOH2hPwCHhal2hmFzEdPm8EgDBELxIMAP5VDdFxWyshfmFrKmwj85s1I82195LGKLx+imTKbrLu+9FgwzXUxC4RMVmL5PZX5Gs2pkw+hsNe3R/iQwhmwnny+FIiuHcovywiJNKSDwGRUOnE4+STXNzRwAkkzGoIvV3hjstc0gJmbnSP6IaMVO2muY2QYbe3EBFqASCSMfTU1OHradBayMYYunKYc5BRAOTZZQm0SgHjiyygXampt7d31/DPHX3LNfYfkMxLPuRa6+/w1Qa/z0v0KRI+yDlQ6IZAD+ZCGKkETmz8VDl0g/D5Vvix6DzLRoo1ulId4vUzi0tjQiOHYCCbRKgijyio/a8CAdA1RbkoFJVBxcWiQQ1paRVS1pw5HzyxngXLuogcvhkDAIXUusQFxfUpqsB5Wy2szPztieOX39y/9+v+5f93Y7fnYPqmF7vnymqDbdmnkG787DFFWGuwb18DbVCecb/5RcJ68DPYRdelxIsOOMAHk1LMy0hneST9CM9RevHjxVBMTMCClp550zMQJIv/Q6KtHb3cYxxx3FDeZjNE0FSVCAQTDgCQakX1I4k8MFpuds/9X//jg0q9fveqwC4PvOnTvhWuClsilkctvgRbqNZus0SsY8oQl9EPIZG18FN6mWi5VtBROg/Wkc+Irj0a5HvkQIvkivg8yV5TVszASP8/s4zoMKE5gJm5GNYWCYyQUjOC9t7ZifsU81gwyYUmJlqII8X6INFlKqMU0s8ODeGfN6qVf+ZSEIQSy6sI/BG3RyyKX3RRv4eomKuE5Uyqd8h5iFPa+JjXEAtQXToP7pHMVvizFLisnlBz5hx9/zOHv9GnT4nwkqomUX87IxYYGZGXn8DyH6Uf6E+rSEXBt984qZE9IR8GEYoVDMcEpyuyeYUA8Fq1T/MUTTTZTmgUb16xeeuEPb/tUNEN/Di1071dXh6xDl5NABPr9QGoxui0kgTheWwN3cz075Na8clgWkcmiKCsVXxaxOFgY5NDS0oyZM2eKsa/EoEG39wwlFSYrM5t44mUL18hvBHQzHAqjqqYWR02ZjJ7ubuTmymov+wH9PqTplF9GcuEWLiEXmXNRCIRH1mw2vHL/vdd9/aer/t/YPMEn/5TQEGvksugVtwA80pbiWI7x+pypk8lqJJNFPmQqnAtllGWUTuJawjMZLX6G7KSlpcWxS0nmO15TIg0hoNw4FbkoBSK6hxHsrarG1ClTGB9MKHdRfldmDI3jGK+U0p/8fr+k1hAE+8SCSgQGHzzxyDVnX3Xz7WN8DYf0MdaQoG34cs7UwxJ18gkvGXOTyXoEniZCaQBNeVPgOGVZnHNRCSXJptPIcjAY5MIeOVQaGRYgh9FvgMARxIRAPIpxkyXmwYkinIBsR5WVcUhMQ5f77akrU1xxp57JdSkOhC1WvP/kIyuXXnXzik/4Sg7617TQPV99KGgf/Fb08sOjIY6Nj8LdVCfm1AunwTLvi3E2IPkCKFKi2T/apTGptIw/S7SraRmUqUvWNX6UhN6F7Kk3NTYxi4KOfqeePE31VlVX8QCO2ynm10eGBmW1NwXIwZRviTyktU2n1rBDszuw9Y8Prjzn+7d/ZsIQTv2BbzwYGO67cpAEwlwnOhmXPKYHlRianTrlIfYF5ynEARpHSYQwoaEZQnOQjCiyZ9QJw4Bo2FMerBRFTt2HEJ2r2NtkZfZRWgxD5RWisGBQAm9uVkAOqaZwDfyZmFOn+ZCc3GzYPV5se/rRlUsv/+1nKgwhkIcvfzAY6Loyuvxm5jQ0tU+V0oKhe/tpULHJ2vgoPI21fOqbJpTDoeQhes1qoH+AOaf09200qNLTeAm82WSZTwTRvBLqZDzvGvHwSHRdbQ0LIz0jg4XDFx4L6kQ1WSSQtg6Mz5+AD598dOWSq278zIUhBPLQ5Q8GI91XRi+/UVD8HZJTT4Pjr3+Ap6VJTFDllcO5UPgQ1oy2dqEZpaVsInRF4H4Iz+HR2JcsqZsaSvoylXiUlZM7nq9JS4Fp/oOFoU/5Ssq+eIPqwCaLzF5rdy9qX3t15fnLf/13EYYQyOrl9wcDnd+JXnGT0BA9GorX/sbsmGKudNhfeQjetlaRGOaWwnbK+Tz0Saw8VPampI9CSZU/JKlBpRY2jYhIVIupjtTc1MimiQZwiMeEzRRTVuhjzGLpylgFwrwPNP+++sGV5/3ws/UZiS9XC/1++f3BUIJAEsvvatQzmsniBpVZIM25pXCddgH62/3o6evlcgih18UATnzzACEBiZwlTRYX41BShWNL1r0ID+yrq0Nv/wAKCguQI8ePk04Nc7Gn6BiankWYNiIj2Lv26T+ccsl/XzHm0/cpfVALPXzFfaFg53cjV9wMRAZkTS1FCVVJvkz3YsrU0+F85SG4dA2ZUI7wrEUY6OhEUVERbDYaJZMIEaMPLqZa4w2qhLBXOQD0R1pY+c6b72PS5ALm4xV0gAmFQPrvRB+io04SBGJzOrFr7dN/OPUIEIZ06lfcFwx1fzd62e+AQeJclHes2vD9JQYpBOJub2M2IJ93AlrL5qO8sAB2pzVOqZow/kW1LOFDlFnuhAhL+GkLk7kE+vsxffo0Hl0wDVkm1LP2G2XRaJrLhb0vPLM22l918eLlq5OQ6J+SEuz3slpwzXfvHuhr+GH0sptgjYb3j35P5VcUgYy402Hf8BDSSENsFuxy5yJt0QXIZCo7ffeS3n1TUSeE7e1KLRD5neR062rrkJmVhcFohHMWFwUAJtSJ3hqmv0zA9poY5TRoLjfq1q+tDHWFly1OMRbw9xAGa0jwke/eM9jT/IPgZTcAI6kOScrWWfx+EzXk1d/D3epnp9pWUArryctg1UPRVC1cHjO2oK2TcFl6xzBuV+jbKQuvrqpigdGyrrq6WmSMywYT1RgUSvFIjC2WFIiAAalRlgab243qV17aE3p3x/GLVxwZmmHELuE1P7y7v3PvD6NX3gHLUETs9JNJcvwPCoQnUUuU0lfMnQ7HKw/BQyaLKP5yJsNpjCOMfubM2N44lJR5rCwaaqpr4PZ6GeRAAUGTRL8LGFCqzFU0v4iMzAQDokzf7Ubtxhf3BDZ9dMQJQ2rId+4K9DX+iEonlkFaLJmiCXGQPsTV6oeFUCfjy+DkjqGCOjEULs4xlRz20q3FOCKjDJyYdCgoIFNFYS83qHJyBA5YjfoUwFyShkCDzZOGhrcrKyMfvP29Bdc8flhbr4fLxGnBNd+7I9xZ9+Pwt26FNrSftXmjfaNqstzpcG54COzUqZaVMxlWKr/T8kZTK1RtJgmTFQfKEcjBwuTKNXW1cNmdTAKm0/dRHUz01LMFLkvIzqTMwmRBMsoJ5KLd7UHj1lf29Lyy9YjUDMNkBf/0g9tDnXVXR0ggg1Q6SXy4/Swn1l+GPKVUOnFueADujk4WSP34yXBT+Z0nqEb50YFncj6EkCTUIyFhWK12TC4p4ZI61ayoJK5riCCfoaxevQlFOnotq60NRZPL0L7jXV/vX1+qWPCLI1Mz4j7k0R/cHmjfd3V4+W2wDBM9xCH0Q5xpsK+/H97ePsF1klUI62lfkw2qUWrq0qnrGkKOu6q2GjaLDZMnTxKUFcrcHhcXGxuQOS6bhzpNVzXMlygWMpNDIIjBxlofXq+smH2EC4N9SPipn9wWaP74J0IgkWTkuW6kU5gFw1xIRx/TBdJDAhmBP6sA1oqLYR+JmnG9JniNmM2gPCQrKxMtzR0YjkVQVloWZxlV8gu92ss+hPmn9LNlHqqhvx2x2uF7d6NP2/J8xYJfrDsifUai3dDCT1x9c7R5108D37oFIHRIUmIof2XMAvkfeHt7eXUdCSRWcRE8I0MJmzPNkRH10rv7+tDV1sN7R8qm6pohJ3uU1isJpKHeJ5kcpA9JsoYxduAdH23z+Z//Y8XiFZ8PYQgNeeLqmwf8O38a0TVEbwodIP0wQmPVqTs8sG34PdJoXTWG0ZCZB9fiSwUMSKdDVWNq+R00xrbr/Y8xYrXhGKLVMMhcVPMp1FCdMRQ+xNyrp7zE7k1H587tvpY/r/5cCcMQSMC/86eGyVIFYnrrozhlVSBksl5+AN6eXjZZLZkTYKu4JG6ylP6D3gijuZH6+ma0tbThuLnHEAu/MtMnOKfibk2U35uamnicTKDfzcNFtIq1ece23sBLDx6/YMVrnwszpb5ZLfz0v98Ybdjxs8C3bgVGIvG2qZ4Apsq71L8zCcQL+/oHpFMfgT8zP4UPiUdF1B/3+WhP7giyMql960y9fDHJhxAMaJyMshTQhNuD9t0foWftqqULV7z2qcJ1Rg8bD+1ftPBTP/1doPnD/xtefqtw6okakqrKO5pAkkzWBLhIQxhsTb8UTwZpXr2hsZnHmo8qLwUBnc1Ekamnl3RGOSPKooMzQj7Dg46aKvjX3D1j8fXrdx/aa/n7/bYWfu5XN0RqNv5H8Ft3GIT55ilYPclIzE8UZ69HWQ4PHBsehKenn01Wc2Ye7CQQCqcVn8RQnqZmhCJhHFVWzsxvKZkc2KiqsyQiDyESTCafkSaLdhS2Vteg+9Gbli664c3PpWbE85DnfnVDmARy5R3xDWdJbDkJtaxRTVYanC/fD09fSPiQ9FzFZIlfIjNFS99DoQAmT5rMJXmuZbUR6iRTghxU7TDbTOHU60AtXIIB2V0utPoa0PbEnUsXr3jxcy0MPn+hZ3/120jtxl+ErrwjXlg0CWSs6qsh5vBwYpgeHgGGQ2hJHw9UXAz3yCB30Kk2RWC0/v4+lE+ZwhO5NFFOHUPTWLQRkcmFW0ooTtcQAztZ8GZlo8NXh/Y/3fRvp/7m1bvHeqdH8ue00HO/ujZc/dovQ1feKRfDy1kMJes1TT7tp4VLTA7O9ffDHdW4P1+flgPX6ZfCMUxFQRtDNfu6Aig9arJo48ofykO4H8Ll90TUiZy84n6G6KlTcTE3vwCBnm50PXzD0oXXvvK51wzDZOkCCX/7TuF4E8vvY46yNNByYtfL/wM3VWCiAfgz8thkubQRXj9Kg5ZlU4jjhNxVPKQVXCdiTj3O/iyjCXXmQ1L3NbW3wzMcQeuau//rtN+su/ZIPvEHe2+sIZHajb8MLr+DoTn6JpyDvRB7bYcLzvUkENKQARaI4wuXYqC9hU0S8WIx/EctQOm0q52dcZCDgQNOvgvKM6o+3onOJ1bdcc5Nr/7k4O/zyP4NLfT8r1eGdr/8q8hVdwPGgMwohcD9PQtZFJsLznX3wTtsRWwwgKbM8QjNORc9/iZMKS9PFobMLwyTZfTU1ew7nvkRvDPS2YHG1TeuLZw0/+LSI6j1erjErEVeuG5FaE/lf4co7BW25BNemzRE+pBBC5fya6xpaJ12KqZPKuYBe+6rmzJvkfYkwYBYQ+I5C88WOt0I9nSj5ffXX7fgv1741McCPuFLOORfMwQSXH67mOU+DD7EEyZfFEaV5ob7rMuQZtMwIsePzcMfIs9ghraOTmQYfFnmGhbRdEQDAfgevrly0X8+c/YhP/URfAEt8vxvfxXcs25l+Fu3xYtCo+QZKZ/D+Kxw6k5y6kO0ZLcHjZnj4ar4Omz6jKFx6nWTqG+sSegYKk0nEsZQKITqB35bWVKUvaz0CIHrfFoy1SLPX/fL4O5114YpD+GyiQJyOJArMYXAukDuh5tMVkQ4daMfwuZQfwxFAwx6Jhn22vVxhBgsdgcGQ2HU3ffbtUUTsy7+RxcGJ4aRF679eWjP+uvZZKkCOdgjQLK0u+F8+QG4BzVokX5FIDSFq2f7ySV1U9jLxAExbtkSC2jtfb9dueiXz/zdwM8H+xoO9fNa+IXrfhbeve5G4UPUnUsHeWkiDLM64Vx3P9yaE1q4hwUSq7gYnpFonCqPL6uX2EUDigVCuCyd4s9CG2+GUL36lpWLrnn0n0YY/GbC62/9aWjrYzeHv3sPYKUsWY9wjNxROd1xGK0hLuXAs4a8tApuWwa0QBv8GROkyVI1RBG0lAvPjXAtK4P5S4YsgP/BX99xwjX//x8uzzjQMSeBXB3Z9vjtwatIIBIrq9ayDiJTH7bZYX/xXmTas4BgB+qzCuA65SsSl5XI5BB3QHGuk3Q4PWmoe+T6ygltTctKV7x2ROBtD/QSD+e/a+GXb/9R+P2n7gpRlHUYNMT10r3w2NIRG2hDa+YEWE67SPL2qgRm8hH0mUOqZXX1IGNcDtqeWFU5zr/nn1IYbLKiG279QWjr4/cIDSGTpewaHLPoxWnnTP2l++CxpQED7WjMGA/X4ktg03FZev/b1OMgygorugaC6Fu7ek9e697j/xk1w3AQ0Q03fyf87rP3B6+6EzGbJZ4YjlkYSvpCeYgikOaM8bAv/rpoUCU5nfjfWN1e1D5yqy+veUdF6YpNn7s++MG8qgN9VotuuP3K4NZHHwyN5kP0/CFFyYMvrjp1m4iyWEMC7QlOPQWBGeUgLg98j93ly61/q6J0xfv/1MIQJuuv914R2rL64eC37zoMPsQF10v3wW0SyEUSBiSlZ4yyWUCa4fvTHb7cfW9XlN7wL2EIgbx27zeDb67+Y/C7dzGTqCnsTZWpq3ithEx92GqH7aVVyLRnAwOtqE/Phfv0S2VP3bwSyOpJg++Ju325u974lzDUTCCycdXXQ+88/KfQt+9mNurkau9YBnZEN49rWZUPwGPxSJMlSycMchACIWYdiycDvkdu8+Xue+tfwkhwKlpk430Xhd96+PHAVXcynQQLxJR7pECdqBdRfMiw1Qb7+geR6chFrLcB/kyZGBpOPQZrWhZ8T6zy5X78YkXpDbv/6X1GopPXIq/f99Xwmw8/dVgEQonhuvuQ6cxDrLcRrZl5GKm4BB4GOQAWbzoan7inKfvjdaf8Sxip4y0t8tq9Xw5tXv1MkEAOZLLUfgif/v3Mh6ggOv6sDa51D8DtHc8CoUzdveirnBhavRlofuYBjNv8zJmTbtu34UDh3z/rv2vhNx/6UuSv960NfOcuaPp6ab10MlanLuuFw1YHHC+uQnpaIdDlQzNhe0+9EC6PG/61v0fGm88uLb1zzz8MQuTTODRaePNj5wyuv/H5ASouOuQ67LEIRMX+yjsbsbvgeP5OpKWTQOoZ22v74rfR85fVcG9Ys3TKqup/CeMAUtTC76xZGt1wy4uBsQpEvWBCCByz2OF88X54vXmI9TSgOW8y+jQvsv581zWl99R8Joxsn8ap/SyvqQ1uWnNW+OVbKlNqSGI0JU2TKQpTzNqI3QnrulXI9BZA621BfUsj0Fz7h6k3f/h35xD5LF/qoXyXNrj5j6eH19/2yugCGTvYmpw6aYg7PR+x/hYE399QmbP00mXa4rGv/DmUh/lH+F1tcMufTg2vv2XjwI8eMnyISp0kHvJAzXXxKfYha29BujcfI61VlR6tbJn2D4id+jQFr8XefjI7+OwvOkPzv4iYTaHYpjFkKQhi5hRtVzkAzqbLwmEykQtrtBCeoKE2Oxy7NsM5ef5ap7foYm1xfOnup/kQ/0jX/l9s3PUvRnbtNAAAAABJRU5ErkJggg==;" vertex="1" parent="1">
          <mxGeometry x="1040" y="170" width="60" height="138" as="geometry" />
        </mxCell>
        <mxCell id="JMByZSc3zzV_YOSufc9P-30" value="共视区域扩散模块" style="text;html=1;align=center;verticalAlign=middle;resizable=0;points=[];autosize=1;strokeColor=none;fillColor=none;fontSize=20;fontFamily=Times New Roman;" vertex="1" parent="1">
          <mxGeometry x="980" y="135" width="180" height="40" as="geometry" />
        </mxCell>
      </root>
    </mxGraphModel>
  </diagram>
</mxfile>
